<svg width="50" height="50" viewBox="0 0 50 50" fill="none" xmlns="http://www.w3.org/2000/svg">
<path fill-rule="evenodd" clip-rule="evenodd" d="M25 50C38.8071 50 50 38.8071 50 25C50 11.1929 38.8071 0 25 0C11.1929 0 0 11.1929 0 25C0 38.8071 11.1929 50 25 50ZM24.7355 23.3797L15.2852 17.6045H34.1859L24.7355 23.3797ZM37.4996 18.0658C37.4999 18.0816 37.4999 18.0974 37.4996 18.1131V32.5986C37.4996 34.0733 36.3041 35.2688 34.8294 35.2688H14.6416C13.1669 35.2688 11.9714 34.0733 11.9714 32.5986V18.1134C11.9712 18.0974 11.9712 18.0815 11.9714 18.0655V17.4578C11.9714 15.9831 13.1669 14.7876 14.6416 14.7876H34.8294C36.3041 14.7876 37.4996 15.9831 37.4996 17.4578V18.0658ZM24.7355 26.681L34.6827 20.6021V32.4519H14.7883V20.6021L24.7355 26.681Z" fill="#3E3E3E"/>
</svg>
