<svg width="50" height="50" viewBox="0 0 50 50" fill="none" xmlns="http://www.w3.org/2000/svg">
<path fill-rule="evenodd" clip-rule="evenodd" d="M25 50C38.8071 50 50 38.8071 50 25C50 11.1929 38.8071 0 25 0C11.1929 0 0 11.1929 0 25C0 38.8071 11.1929 50 25 50ZM17.3836 15.977C17.9011 15.46 18.1921 14.7586 18.1924 14.0271C18.1928 13.2956 17.9025 12.5939 17.3855 12.0763C16.8685 11.5588 16.1671 11.2679 15.4356 11.2675C14.7041 11.2671 14.0023 11.5574 13.4848 12.0744C12.9673 12.5914 12.6764 13.2928 12.676 14.0243C12.6756 14.7559 12.9659 15.4576 13.4829 15.9751C13.9999 16.4926 14.7013 16.7836 15.4328 16.7839C16.1643 16.7843 16.8661 16.494 17.3836 15.977ZM12.7587 18.8264H18.2752V36.0928H12.7587V18.8264ZM21.5023 18.8264H26.9911L26.936 21.1433C29.2253 16.9646 38.9618 16.6474 38.9618 25.1565V36.0928H33.5143V27.0321C33.5143 21.5156 26.936 21.9845 26.936 27.0321V36.0928H21.5023V18.8264Z" fill="#3E3E3E"/>
</svg>
