<?xml version="1.0" encoding="utf-8"?>
<!-- Generator: Adobe Illustrator 24.1.0, SVG Export Plug-In . SVG Version: 6.00 Build 0)  -->
<svg version="1.1" id="Layer_1" xmlns="http://www.w3.org/2000/svg" xmlns:xlink="http://www.w3.org/1999/xlink" x="0px" y="0px"
	 viewBox="0 0 74 83" style="enable-background:new 0 0 74 83;" xml:space="preserve">
<style type="text/css">
	.st0{opacity:0.5;fill-rule:evenodd;clip-rule:evenodd;fill:#0040D0;enable-background:new    ;}
	.st1{filter:url(#Adobe_OpacityMaskFilter);}
	.st2{fill-rule:evenodd;clip-rule:evenodd;fill:#FFFFFF;}
	.st3{mask:url(#mask-2_1_);fill-rule:evenodd;clip-rule:evenodd;fill:#0040D0;}
</style>
<g id="Symbols">
	<g id="footer_x2F_desktop" transform="translate(-44.000000, -281.000000)">
		<g id="icon-doc" transform="translate(44.000000, 281.000000)">
			<polygon id="Fill-1" class="st0" points="56,80 56,65 71,65 			"/>
			<g id="Group-5">
				<g id="Clip-4">
				</g>
				<defs>
					<filter id="Adobe_OpacityMaskFilter" filterUnits="userSpaceOnUse" x="0" y="0" width="74" height="83">
						<feColorMatrix  type="matrix" values="1 0 0 0 0  0 1 0 0 0  0 0 1 0 0  0 0 0 1 0"/>
					</filter>
				</defs>
				<mask maskUnits="userSpaceOnUse" x="0" y="0" width="74" height="83" id="mask-2_1_">
					<g class="st1">
						<polygon id="path-1_1_" class="st2" points="0,0 74,0 74,83 0,83 						"/>
					</g>
				</mask>
				<path id="Fill-3" class="st3" d="M41.2,31.7c0.9,0,2-0.2,3.2-0.7v2.2c-1,0.4-2.2,0.6-3.5,0.6c-1.8,0-3.3-0.6-4.2-1.7
					c-1-1.1-1.5-2.7-1.5-4.8c0-1.3,0.2-2.5,0.7-3.4c0.5-1,1.2-1.7,2.1-2.3c0.9-0.5,2-0.8,3.2-0.8c1.2,0,2.5,0.3,3.7,0.9L44.1,24
					c-0.5-0.2-1-0.4-1.4-0.6s-1-0.3-1.4-0.3c-1,0-1.8,0.4-2.4,1.1c-0.6,0.8-0.8,1.8-0.8,3.2C38,30.3,39.1,31.7,41.2,31.7L41.2,31.7z
					 M22,27.4c0-2.1,0.5-3.7,1.6-4.8c1-1.1,2.5-1.7,4.5-1.7s3.4,0.6,4.5,1.7c1,1.1,1.5,2.7,1.5,4.8c0,2.1-0.5,3.7-1.6,4.8
					c-1,1.1-2.5,1.7-4.5,1.7c-1.9,0-3.4-0.6-4.5-1.7C22.5,31.1,22,29.5,22,27.4L22,27.4z M68.9,62.9c-0.1,0-0.2-0.1-0.3-0.1H53.3V78
					H14.5V40.2h38.8V15.1H14.5V5h54.4V62.9z M58.4,75.3v-7.4h7.4L58.4,75.3z M10.3,33.7V21.1h4c2.1,0,3.7,0.5,4.8,1.6
					c1.1,1.1,1.7,2.6,1.7,4.5c0,2.1-0.6,3.7-1.8,4.8c-1.2,1.1-2.9,1.6-5.2,1.6H10.3z M8.2,33.6C7.9,33.8,7.6,34,7.1,34
					c-0.5,0-0.9-0.1-1.1-0.4c-0.3-0.3-0.4-0.6-0.4-1.1c0-0.5,0.1-0.8,0.4-1.1C6.2,31.1,6.6,31,7.1,31c0.5,0,0.9,0.1,1.1,0.4
					c0.3,0.3,0.4,0.6,0.4,1.1C8.6,32.9,8.5,33.3,8.2,33.6L8.2,33.6z M9.4,0v15.1H0v25.2h9.4V83h48.4L74,67V0H9.4z M31.3,27.4
					c0-2.8-1.1-4.2-3.2-4.2c-1.1,0-1.9,0.4-2.4,1.1c-0.5,0.7-0.8,1.8-0.8,3.2s0.3,2.5,0.8,3.2c0.5,0.7,1.3,1.1,2.4,1.1
					C30.2,31.7,31.3,30.2,31.3,27.4L31.3,27.4z M14.4,23.3H13v8.2h1.2c2.6,0,3.9-1.4,3.9-4.1C18,24.7,16.8,23.3,14.4,23.3L14.4,23.3
					z"/>
			</g>
		</g>
	</g>
</g>
</svg>
