<?xml version="1.0" encoding="UTF-8"?>
<svg width="32px" height="32px" viewBox="0 0 32 32" version="1.1" xmlns="http://www.w3.org/2000/svg" xmlns:xlink="http://www.w3.org/1999/xlink">
    <title>icon-about-default</title>
    <g id="icon-about-default" stroke="none" stroke-width="1" fill="none" fill-rule="evenodd">
        <path d="M16.897,25.379 L16.897,17.316 C18.058,16.901 18.897,15.801 18.897,14.5 C18.897,12.845 17.551,11.5 15.897,11.5 C14.243,11.5 12.897,12.845 12.897,14.5 C12.897,15.801 13.736,16.901 14.897,17.315 L14.897,25.379 L7.266,14.695 C8.802,13.403 12.035,10.208 12.414,6 L19.379,6 C19.758,10.208 22.992,13.403 24.528,14.696 L16.897,25.379 Z M15.897,15.5 C15.345,15.5 14.897,15.051 14.897,14.5 C14.897,13.948 15.345,13.5 15.897,13.5 C16.449,13.5 16.897,13.948 16.897,14.5 C16.897,15.051 16.449,15.5 15.897,15.5 L15.897,15.5 Z M26.473,13.682 C26.424,13.648 21.905,10.4 21.39,6 L24.897,6 L24.897,4 L6.897,4 L6.897,6 L10.403,6 C9.888,10.4 5.37,13.648 5.321,13.682 L4.5,14.263 L15.897,30.22 L27.293,14.262 L26.473,13.682 Z" id="Fill-1" fill="#0040D0"></path>
    </g>
</svg>