<?xml version="1.0" encoding="UTF-8"?>
<svg width="32px" height="32px" viewBox="0 0 32 32" version="1.1" xmlns="http://www.w3.org/2000/svg" xmlns:xlink="http://www.w3.org/1999/xlink">
    <title>icon-behance-navy</title>
    <g id="icon-behance-navy" stroke="none" stroke-width="1" fill="none" fill-rule="evenodd">
        <path d="M15.6360265,10.4555815 C16.0312615,11.0375525 16.2301218,11.7306866 16.2301218,12.5402149 C16.2301218,13.3732835 16.0312615,14.044185 15.631055,14.5503036 C15.4048514,14.8340962 15.0754889,15.0943484 14.6392391,15.3284447 C15.3016926,15.5834657 15.8000863,15.9849603 16.1393918,16.5342363 C16.4762115,17.0822046 16.6439999,17.7504904 16.6439999,18.5351705 C16.6439999,19.3433909 16.4525968,20.0705278 16.066062,20.7113498 C15.8212152,21.1363849 15.5142246,21.4960299 15.1475758,21.7863615 C14.7336977,22.1198505 14.2464899,22.3474078 13.6822237,22.4716488 C13.1179574,22.5958898 12.5077048,22.6560486 11.847737,22.6560486 L6,22.6560486 L6,9 L12.2715581,9 C13.8549836,9.026156 14.9748159,9.51004204 15.6360265,10.4555815 L15.6360265,10.4555815 Z M8.58767023,11.3723494 L8.58767023,14.3855208 L11.7433353,14.3855208 C12.3051158,14.3855208 12.7637375,14.2717422 13.1167146,14.0454928 C13.465963,13.8205511 13.6436945,13.4203643 13.6436945,12.8475479 C13.6436945,12.2106492 13.4112764,11.7908454 12.9464404,11.5855208 C12.5449911,11.4442784 12.0341686,11.3723494 11.41273,11.3723494 L8.58767023,11.3723494 L8.58767023,11.3723494 Z M8.58767023,16.6440915 L8.58767023,20.285007 L11.7383638,20.285007 C12.3013872,20.285007 12.7401228,20.2052312 13.0533278,20.0456796 C13.6225656,19.7475012 13.9059416,19.1799159 13.9059416,18.3416161 C13.9059416,17.628865 13.6325086,17.1423634 13.0806711,16.8755722 C12.7711947,16.7277908 12.3386735,16.6493227 11.7831074,16.6440915 L8.58767023,16.6440915 L8.58767023,16.6440915 Z M24.4902834,12.7638487 C25.161437,13.0790285 25.7132745,13.5773003 26.1470386,14.2573564 C26.5435164,14.8576366 26.7983062,15.5533863 26.9138938,16.3446053 C26.9810092,16.8088744 27.0095953,17.4771602 26.9971666,18.3494629 L20.0059826,18.3494629 C20.0469975,19.3630079 20.3788457,20.0731434 21.0102273,20.4798692 C21.3942764,20.7335824 21.8553838,20.8591312 22.3947925,20.8591312 C22.9640302,20.8591312 23.4301092,20.7061186 23.7868149,20.3974778 C23.9831895,20.2300794 24.1547065,19.9985988 24.3038518,19.7017282 L26.8654216,19.7017282 C26.7983062,20.3007006 26.4875869,20.9088277 25.9357495,21.5287249 C25.0769214,22.509575 23.8725734,23 22.3264342,23 C21.0487565,23 19.9202241,22.5867352 18.9470513,21.7575899 C17.9676641,20.9297525 17.4816991,19.5814106 17.4816991,17.7164876 C17.4816991,15.9653433 17.9216776,14.6248482 18.8016346,13.6897711 C19.6840774,12.7586175 20.8275244,12.290425 22.2332185,12.290425 C23.0684319,12.290425 23.8216155,12.447361 24.4902834,12.7638487 L24.4902834,12.7638487 Z M20.7367944,15.044652 C20.3825744,15.4291453 20.1588565,15.9509575 20.0681265,16.6074731 L24.3920961,16.6074731 C24.3473525,15.9064923 24.1223917,15.3755255 23.724671,15.011957 C23.3219788,14.6496964 22.8260709,14.4679122 22.2344613,14.4679122 C21.5918938,14.4679122 21.0910144,14.6601588 20.7367944,15.044652 L20.7367944,15.044652 Z M19.4193446,11.3370388 L24.979977,11.3370388 L24.979977,9.63820645 L19.4193446,9.63820645 L19.4193446,11.3370388 Z" id="Shape" fill="#00226E"></path>
    </g>
</svg>