<?xml version="1.0" encoding="UTF-8"?>
<svg width="32px" height="32px" viewBox="0 0 32 32" version="1.1" xmlns="http://www.w3.org/2000/svg" xmlns:xlink="http://www.w3.org/1999/xlink">
    <title>icon-bento</title>
    <g id="icon-bento" stroke="none" stroke-width="1" fill="none" fill-rule="evenodd">
        <path d="M10,22 L10,28 L4,28 L4,22 L10,22 Z M19,22 L19,28 L13,28 L13,22 L19,22 Z M28,22 L28,28 L22,28 L22,22 L28,22 Z M10,13 L10,19 L4,19 L4,13 L10,13 Z M19,13 L19,19 L13,19 L13,13 L19,13 Z M28,13 L28,19 L22,19 L22,13 L28,13 Z M10,4 L10,10 L4,10 L4,4 L10,4 Z M19,4 L19,10 L13,10 L13,4 L19,4 Z M28,4 L28,10 L22,10 L22,4 L28,4 Z" id="Combined-Shape" fill="#3206FF"></path>
    </g>
</svg>