<?xml version="1.0" encoding="UTF-8"?>
<svg width="32px" height="32px" viewBox="0 0 32 32" version="1.1" xmlns="http://www.w3.org/2000/svg" xmlns:xlink="http://www.w3.org/1999/xlink">
    <title>icon-dribbble</title>
    <g id="icon-dribbble" stroke="none" stroke-width="1" fill="none" fill-rule="evenodd">
        <path d="M26.7762098,13.7862896 C26.6326219,13.0787818 26.4152996,12.3829149 26.1345916,11.7180904 C25.8603516,11.0662002 25.5175516,10.4375919 25.120421,9.85037333 C24.7271712,9.26832853 24.27571,8.71991299 23.7789734,8.22323476 C23.2809431,7.7252631 22.7337567,7.27385502 22.1503499,6.88065142 C21.5630623,6.48227409 20.93438,6.14210124 20.2824131,5.8653066 C19.6175104,5.5859251 18.9215617,5.36733494 18.2152643,5.22505732 C17.4908567,5.07631254 16.7457517,5 16.0006468,5 C15.2542483,5 14.5091433,5.07631254 13.7847357,5.22505732 C13.0784383,5.36733494 12.3824896,5.5859251 11.7175869,5.8653066 C11.06562,6.14210124 10.4369377,6.48227409 9.84835656,6.88065142 C9.26624331,7.27385502 8.71905686,7.7252631 8.22102664,8.22323476 C7.72299641,8.71991299 7.27282884,9.26832853 6.879579,9.85037333 C6.48115482,10.4375919 6.13964838,11.0662002 5.86411478,11.7180904 C5.58340683,12.3829149 5.36737814,13.0787818 5.22249662,13.7862896 C5.07502793,14.5080252 5,15.2543359 5,15.9993533 C5,16.7456641 5.07502793,17.4919748 5.22249662,18.2162973 C5.36737814,18.9212182 5.58340683,19.6183785 5.86411478,20.2819096 C6.13964838,20.9337998 6.48115482,21.5637016 6.879579,22.1522135 C7.27282884,22.7342583 7.72299641,23.280087 8.22102664,23.7780587 C8.71905686,24.2760303 9.26624331,24.726145 9.84835656,25.1193486 C10.4369377,25.5177259 11.06562,25.8591922 11.7175869,26.1346934 C12.3824896,26.4153683 13.0784383,26.6300782 13.7847357,26.7749427 C14.5091433,26.9249809 15.2542483,27 16.0006468,27 C16.7457517,27 17.4908567,26.9249809 18.2152643,26.7749427 C18.9215617,26.6300782 19.6175104,26.4153683 20.2824131,26.1346934 C20.93438,25.8591922 21.5630623,25.5177259 22.1503499,25.1193486 C22.7337567,24.726145 23.2809431,24.2760303 23.7789734,23.7780587 C24.27571,23.280087 24.7271712,22.7342583 25.120421,22.1522135 C25.5175516,21.5637016 25.8603516,20.9337998 26.1345916,20.2819096 C26.4152996,19.6183785 26.6326219,18.9212182 26.7762098,18.2162973 C26.9249721,17.4919748 27,16.7456641 27,15.9993533 C27,15.2543359 26.9249721,14.5080252 26.7762098,13.7862896 L26.7762098,13.7862896 Z M25.3920739,15.9062261 C25.2562474,15.8764772 22.0766155,15.1922512 18.849121,15.5983891 C18.7818545,15.4380034 18.7145881,15.2763243 18.6460281,15.1146452 C18.4494032,14.6541831 18.2398424,14.1988947 18.0212266,13.7513669 C21.7312283,12.236757 23.2369613,10.058616 23.2550714,10.0327474 C24.571941,11.6340173 25.3700829,13.6776412 25.3920739,15.9062261 L25.3920739,15.9062261 Z M22.2046804,8.95014404 C22.1813959,8.98636016 20.843829,11.023517 17.296819,12.3518725 C15.69148,9.40155212 13.92703,7.05785173 13.7860293,6.87159739 C14.4962074,6.69957082 15.2374316,6.60644365 16.0006468,6.60644365 C18.378256,6.60644365 20.5488916,7.49373861 22.2046804,8.95014404 L22.2046804,8.95014404 Z M13.7498089,6.87935799 C13.7498089,6.88065142 13.7485153,6.88065142 13.7485153,6.88065142 C13.7485153,6.88065142 13.7368731,6.88323829 13.7200564,6.88711858 C13.7291115,6.88453172 13.7394602,6.88323829 13.7498089,6.87935799 L13.7498089,6.87935799 Z M11.9918269,7.50408607 C12.1160111,7.67223235 13.8545893,10.0262802 15.4806256,12.9171027 C10.9698947,14.116115 7.05421297,14.068258 6.80584465,14.0643777 C7.41641677,11.1541537 9.3710237,8.74190135 11.9918269,7.50408607 L11.9918269,7.50408607 Z M6.60533898,15.9993533 C6.60533898,15.899759 6.61051332,15.8014581 6.61310049,15.7031572 C6.77867937,15.7070375 11.4213559,15.8118055 16.2580702,14.3644541 C16.5271359,14.8908813 16.7845593,15.4263625 17.0199918,15.9605503 C16.8958076,15.995473 16.772917,16.0329825 16.6500265,16.073079 C11.5804669,17.7118584 9.0088199,22.2725028 9.0088199,22.2725028 C9.0088199,22.2725028 9.01270065,22.2763831 9.01270065,22.2776765 C7.51602281,20.6130284 6.60533898,18.4128991 6.60533898,15.9993533 L6.60533898,15.9993533 Z M16.0006468,25.3935564 C13.7265244,25.3935564 11.6412654,24.5851608 10.015229,23.241284 C10.1394132,23.3408784 10.2260834,23.40555 10.2260834,23.40555 C10.2260834,23.40555 12.0267537,19.4786878 17.5982243,17.537245 C17.6189216,17.5294844 17.639619,17.5230172 17.6616099,17.5165501 C18.9836538,20.9519078 19.5282531,23.8285026 19.6679603,24.6498324 C18.5412477,25.1284026 17.3006997,25.3935564 16.0006468,25.3935564 L16.0006468,25.3935564 Z M21.2500147,23.790993 C21.1542894,23.2244694 20.653672,20.4668705 19.4208855,17.0819566 C22.4543423,16.5969193 25.0816135,17.4285966 25.2756512,17.4919748 C24.8578232,20.1085896 23.3585582,22.3669234 21.2500147,23.790993 L21.2500147,23.790993 Z" id="Shape" fill="#FFFFFF"></path>
    </g>
</svg>