<?xml version="1.0" encoding="UTF-8"?>
<svg width="32px" height="32px" viewBox="0 0 32 32" version="1.1" xmlns="http://www.w3.org/2000/svg" xmlns:xlink="http://www.w3.org/1999/xlink">
    <title>icon-home-default</title>
    <defs>
        <polygon id="path-1" points="0 0 24.639 0 24.639 24.6388 0 24.6388"></polygon>
    </defs>
    <g id="icon-home-default" stroke="none" stroke-width="1" fill="none" fill-rule="evenodd">
        <g id="Group-3" transform="translate(4.000000, 4.000000)">
            <mask id="mask-2" fill="white">
                <use xlink:href="#path-1"></use>
            </mask>
            <g id="Clip-2"></g>
            <path d="M18.479,0 L12.32,0 L0,0 L0,24.639 L12.32,24.639 L24.639,24.639 L12.32,12.319 L18.479,12.319 C21.881,12.319 24.639,9.562 24.639,6.16 C24.639,2.758 21.881,0 18.479,0 M18.479,2 C20.773,2 22.639,3.866 22.639,6.16 C22.639,8.453 20.773,10.319 18.479,10.319 L12.32,10.319 L7.491,10.319 L10.905,13.733 L19.81,22.639 L12.32,22.639 L2,22.639 L2,2 L12.32,2 L18.479,2" id="Fill-1" fill="#0040D0" mask="url(#mask-2)"></path>
        </g>
    </g>
</svg>