<?xml version="1.0" encoding="UTF-8"?>
<svg width="32px" height="32px" viewBox="0 0 32 32" version="1.1" xmlns="http://www.w3.org/2000/svg" xmlns:xlink="http://www.w3.org/1999/xlink">
    <title>icon-medium-navy</title>
    <g id="icon-medium-navy" stroke="none" stroke-width="1" fill="none" fill-rule="evenodd">
        <path d="M26,10.3569604 L25.2094313,10.3569604 C24.9158576,10.3569604 24.4997688,10.7856048 24.4997688,11.0600774 L24.4997688,20.9936492 C24.4997688,21.2681218 24.9158576,21.6418717 25.2094313,21.6418717 L26,21.6418717 L26,24 L18.832871,24 L18.832871,21.6418717 L20.3331022,21.6418717 L20.3331022,11.1990656 L20.2602866,11.1990656 L16.7570504,24 L14.0455386,24 L10.5873786,11.1990656 L10.4995377,11.1990656 L10.4995377,21.6418717 L11.9997688,21.6418717 L11.9997688,24 L6,24 L6,21.6418717 L6.76860841,21.6418717 C7.0852982,21.6418717 7.50023116,21.2681218 7.50023116,20.9936492 L7.50023116,11.0600774 C7.50023116,10.7856048 7.0852982,10.3569604 6.76860841,10.3569604 L6,10.3569604 L6,8 L13.5023116,8 L15.9664817,17.2631579 L16.0335183,17.2631579 L18.5196486,8 L26,8 L26,10.3569604" id="Shape" fill="#1E0499"></path>
    </g>
</svg>