<svg width="32" height="32" viewBox="0 0 32 32" fill="none" xmlns="http://www.w3.org/2000/svg">
<path fill-rule="evenodd" clip-rule="evenodd" d="M16 29C23.1797 29 29 23.1797 29 16C29 8.8203 23.1797 3 16 3C8.8203 3 3 8.8203 3 16C3 23.1797 8.8203 29 16 29ZM11.4417 10.7661H16.1689V21.2336H11.4417V10.7661ZM21.5715 13.4674C21.5715 14.9593 20.3621 16.1687 18.8702 16.1687C17.3784 16.1687 16.1689 14.9593 16.1689 13.4674C16.1689 11.9755 17.3784 10.7661 18.8702 10.7661C20.3621 10.7661 21.5715 11.9755 21.5715 13.4674Z" fill="#3206FF"/>
</svg>
