<?xml version="1.0" encoding="UTF-8"?>
<svg width="32px" height="32px" viewBox="0 0 32 32" version="1.1" xmlns="http://www.w3.org/2000/svg" xmlns:xlink="http://www.w3.org/1999/xlink">
    <title>icon-about-selected</title>
    <g id="icon-about-selected" stroke="none" stroke-width="1" fill="none" fill-rule="evenodd">
        <path d="M16.397,16.429 L16.397,29.52 L27.293,14.262 L26.473,13.682 C26.424,13.648 21.905,10.4 21.39,6 L24.897,6 L24.897,4 L6.897,4 L6.897,6 L10.403,6 C9.888,10.4 5.37,13.648 5.321,13.682 L4.5,14.263 L15.397,29.52 L15.397,16.429 C14.536,16.206 13.897,15.431 13.897,14.5 C13.897,13.395 14.792,12.5 15.897,12.5 C17.001,12.5 17.897,13.395 17.897,14.5 C17.897,15.43 17.257,16.206 16.397,16.429" id="Fill-1" fill="#3206FF"></path>
    </g>
</svg>