<?xml version="1.0" encoding="UTF-8"?>
<svg width="32px" height="32px" viewBox="0 0 32 32" version="1.1" xmlns="http://www.w3.org/2000/svg" xmlns:xlink="http://www.w3.org/1999/xlink">
    <title>icon-skills-default</title>
    <g id="icon-skills-default" stroke="none" stroke-width="1" fill="none" fill-rule="evenodd">
        <path d="M16.166,5 L2.5,11.418 L7.823,13.918 L2.5,16.418 L7.823,18.918 L2.5,21.418 L16.166,27.837 L29.833,21.418 L24.51,18.918 L29.833,16.418 L24.51,13.918 L29.833,11.418 L16.166,5 Z M7.206,11.418 L16.166,7.209 L25.127,11.418 L16.166,15.626 L7.206,11.418 Z M22.157,15.022 L25.127,16.418 L16.166,20.627 L7.206,16.418 L10.176,15.022 L16.166,17.837 L22.157,15.022 Z M22.157,20.023 L25.127,21.418 L16.166,25.626 L7.206,21.418 L10.176,20.023 L16.166,22.836 L22.157,20.023 Z" id="Fill-1" fill="#3206FF"></path>
    </g>
</svg>