<svg width="32" height="32" viewBox="0 0 32 32" fill="none" xmlns="http://www.w3.org/2000/svg">
<path fill-rule="evenodd" clip-rule="evenodd" d="M16 27C22.0751 27 27 22.0751 27 16C27 9.92487 22.0751 5 16 5C9.92487 5 5 9.92487 5 16C5 22.0751 9.92487 27 16 27ZM16 29C23.1797 29 29 23.1797 29 16C29 8.8203 23.1797 3 16 3C8.8203 3 3 8.8203 3 16C3 23.1797 8.8203 29 16 29ZM11.4417 10.7661H16.1689V21.2336H11.4417V10.7661ZM18.8702 16.1687C20.3621 16.1687 21.5715 14.9593 21.5715 13.4674C21.5715 11.9755 20.3621 10.7661 18.8702 10.7661C17.3784 10.7661 16.1689 11.9755 16.1689 13.4674C16.1689 14.9593 17.3784 16.1687 18.8702 16.1687Z" fill="#3206FF"/>
</svg>
