<?xml version="1.0" encoding="UTF-8"?>
<svg width="32px" height="32px" viewBox="0 0 32 32" version="1.1" xmlns="http://www.w3.org/2000/svg" xmlns:xlink="http://www.w3.org/1999/xlink">
    <title>icon-linkedin-navy</title>
    <g id="icon-linkedin-navy" stroke="none" stroke-width="1" fill="none" fill-rule="evenodd">
        <path d="M6.50446849,12.4131131 L10.4026341,12.4131131 L10.4026341,25.9987194 L6.50446849,25.9987194 L6.50446849,12.4131131 Z M8.35418627,10.7137918 L8.32596425,10.7137918 C6.91486359,10.7137918 6,9.67524651 6,8.36009732 C6,7.01805609 6.94190969,6 8.38123236,6 C9.81937912,6 10.7036689,7.01549494 10.7318909,8.3562556 C10.7318909,9.67140479 9.81937912,10.7137918 8.35418627,10.7137918 L8.35418627,10.7137918 Z M26,26 L21.5797272,26 L21.5797272,18.9683698 C21.5797272,17.1281854 20.8882879,15.8732232 19.3678269,15.8732232 C18.2048448,15.8732232 17.5580903,16.7196824 17.2570555,17.537969 C17.1441675,17.8299398 17.1618062,18.2384428 17.1618062,18.6482264 L17.1618062,26 L12.7826905,26 C12.7826905,26 12.8391345,13.5451402 12.7826905,12.4131131 L17.1618062,12.4131131 L17.1618062,14.5452683 C17.420508,13.6130106 18.8198495,12.2824946 21.0529163,12.2824946 C23.8233772,12.2824946 26,14.2379306 26,18.4446152 L26,26 L26,26 Z" id="Shape" fill="#00226E"></path>
    </g>
</svg>