<svg width="2170" height="120" viewBox="0 0 2170 120" fill="none" xmlns="http://www.w3.org/2000/svg">
<rect width="2170" height="120" fill="#3206FF"/>
<path fill-rule="evenodd" clip-rule="evenodd" d="M95.6472 46L90.1736 47.2212V65.2904C90.1736 70.7232 94.3103 75.1298 99.4153 75.1298C104.521 75.1298 108.664 70.7232 108.664 65.2904C108.664 59.8566 104.521 55.45 99.4153 55.45C98.0812 55.45 96.8165 55.7534 95.6713 56.2935V46H95.6472ZM95.4499 65.2904C95.4499 62.7726 97.0513 60.732 99.4153 60.732C101.78 60.732 103.383 62.7726 103.383 65.2904C103.383 67.8072 101.78 69.8478 99.4153 69.8478C97.0513 69.8478 95.4499 67.8072 95.4499 65.2904ZM67.6769 46L62.3958 47.2212V74.9317H67.699V46H67.6769ZM56.5632 46C49.2561 46 46.0144 50.3081 46.001 55.6317L46 74.9317H51.2946V60.4915H57.9569V55.651H51.2946V55.6317H51.258C51.2763 52.9689 53.0319 50.8057 56.5632 50.8057L60.7548 50.8018V46H56.5632ZM150.655 61.4518C150.691 63.8122 152.436 65.4227 155.993 66.3735L156.276 66.4575C159.819 67.5126 161.291 67.9502 161.291 69.3096C161.302 69.7077 161.141 70.0836 160.831 70.4034C160.338 70.9018 159.516 71.2033 158.627 71.2033C158.353 71.2033 155.94 71.1434 155.733 69.0525L155.716 68.8604L150.443 70.0845C151.318 73.5608 155.015 75.1287 158.551 75.1287C161.241 75.1287 163.643 74.266 165.144 72.7598C166.224 71.6719 166.783 70.3058 166.749 68.8053C166.71 64.7426 162.892 63.8469 159.523 63.0537C157.198 62.4789 156.151 61.8383 156.121 60.9841C156.121 60.2113 156.831 59.3823 158.397 59.3823C160.286 59.3823 160.604 60.3726 160.748 61.1233L160.78 61.3243L165.957 60.1195C165.088 56.707 161.604 55.4548 158.436 55.4548C153.927 55.4548 150.655 57.9727 150.655 61.4518ZM143.019 56.879V65.9599C143.019 68.4564 141.839 69.8477 139.512 69.8477C137.185 69.8477 136.005 68.4564 136.005 65.9599V55.651L130.705 56.8761V65.9599C130.705 71.3695 134.244 75.1297 139.512 75.1297C140.79 75.1297 141.968 74.7887 143.019 74.3868V77.718C143.019 80.8638 141.224 81.7199 139.665 81.7199H138.368L138.362 86.9999H139.774C145.048 86.9507 148.322 83.4049 148.322 77.718V58.0249V55.651L143.019 56.879ZM122.871 56.879V65.9599C122.871 68.4564 121.69 69.8477 119.365 69.8477C117.038 69.8477 115.858 68.4564 115.858 65.9599V55.651L110.555 56.8761V65.9599C110.555 71.3695 114.096 75.1297 119.365 75.1297C124.633 75.1297 128.171 71.3695 128.171 65.9599V55.651L122.871 56.879ZM82.4098 56.879V65.9599C82.4098 68.4564 81.2308 69.8477 78.9046 69.8477C76.5782 69.8477 75.3983 68.4564 75.3983 65.9599V55.651L70.095 56.8761V65.9599C70.095 71.3695 73.6359 75.1297 78.9046 75.1297C80.1846 75.1297 81.3617 74.7887 82.4108 74.3868V77.718C82.4108 80.8638 80.6187 81.7199 79.0585 81.7199H77.7611L77.7563 86.9999H79.1682C84.4416 86.9507 87.7141 83.4049 87.7141 77.718V58.0249H87.7122V55.651L82.4098 56.879Z" fill="white"/>
<path d="M225 47.3821H227.226L239.638 74.7537H240.222L252.679 47.3821H254.785V45.7856H246.668V47.3821H250.648L242.253 67.2962L233.2 47.3821H237.337V45.7856H225V47.3821Z" fill="white"/>
<path d="M305.834 62.6343H298.031L301.756 53.1982L305.834 62.6343ZM318.103 74.7537V73.2022H316.124L304.237 45.7856H303.615L292.163 73.2022H290.379V74.7537H298.031V73.2022H293.834L297.522 63.961H306.373L310.338 73.2022H305.406V74.7537H318.103Z" fill="white"/>
<path d="M284.203 55.5443H285.717V47.3822H284.218C284.218 48.0418 284.218 49.5933 284.218 49.5933C284.218 49.5933 282.696 48.424 282.052 48.0868C279.481 46.7602 276.641 45.7783 273.807 45.7783C266.245 45.7783 258.982 51.0323 258.982 60.1912C258.982 68.7729 264.956 74.7539 273.807 74.7539C274.295 74.7539 274.767 74.7239 275.239 74.6864C276.296 74.6265 277.345 74.4541 278.372 74.1543C279.646 73.7795 280.823 73.2324 281.887 72.5054C282.951 71.7859 283.866 70.9015 284.615 69.8672C285.365 68.8329 285.889 67.6337 286.189 66.2846H284.473C284.083 67.3638 283.558 68.2932 282.891 69.0577C282.232 69.8222 281.475 70.4668 280.613 70.9764C279.758 71.4861 278.822 71.8608 277.817 72.1007C276.813 72.3405 275.764 72.4604 274.684 72.4604C273.125 72.4604 271.716 72.1756 270.45 71.621C266.702 69.6723 264.566 65.4301 264.566 60.0038C264.566 51.6094 269.52 47.4122 274.437 47.4122C281.52 47.4122 283.671 53.0485 284.203 55.5443Z" fill="white"/>
<path d="M320.201 45.7858V53.1609H321.7C322.727 47.3448 323.349 47.3897 326.692 47.3897H330.634V73.2024H327.127V74.7539H339.801V73.2024H336.293V47.3822H340.235C343.585 47.3822 344.2 47.3373 345.227 53.1534H346.726V45.7783H320.201V45.7858Z" fill="white"/>
<path d="M435.584 90.3061C450.394 90.3061 462.399 78.3008 462.399 63.4914C462.399 48.6821 450.394 36.6768 435.584 36.6768C420.775 36.6768 408.77 48.6821 408.77 63.4914C408.77 78.3008 420.775 90.3061 435.584 90.3061Z" fill="#3206FF"/>
<path d="M435.598 34.4512C419.552 34.4512 406.543 47.4581 406.543 63.5067C406.543 79.5526 419.552 92.5604 435.598 92.5604C451.649 92.5604 464.654 79.5526 464.654 63.5067C464.654 47.4581 451.648 34.4512 435.598 34.4512ZM412.579 70.4034C412.328 70.4034 412.122 70.2014 412.122 69.9529C412.122 69.7017 412.327 69.4962 412.579 69.4962C412.827 69.4962 413.029 69.7009 413.029 69.9529C413.029 70.2023 412.828 70.4034 412.579 70.4034ZM412.579 64.3022C412.328 64.3022 412.122 64.0975 412.122 63.8463C412.122 63.5951 412.327 63.3914 412.579 63.3914C412.827 63.3914 413.029 63.5951 413.029 63.8463C413.029 64.0975 412.828 64.3022 412.579 64.3022ZM412.579 58.1974C412.328 58.1974 412.122 57.9927 412.122 57.7424C412.122 57.4912 412.327 57.2892 412.579 57.2892C412.827 57.2892 413.029 57.4912 413.029 57.7424C413.029 57.9936 412.828 58.1974 412.579 58.1974ZM415.709 70.634C415.332 70.634 415.028 70.3283 415.028 69.9529C415.028 69.5757 415.332 69.2691 415.709 69.2691C416.085 69.2691 416.39 69.5757 416.39 69.9529C416.39 70.3283 416.086 70.634 415.709 70.634ZM415.709 64.5265C415.332 64.5265 415.028 64.2235 415.028 63.8463C415.028 63.4709 415.332 63.1661 415.709 63.1661C416.085 63.1661 416.39 63.4709 416.39 63.8463C416.39 64.2235 416.086 64.5265 415.709 64.5265ZM415.709 58.4235C415.332 58.4235 415.028 58.1187 415.028 57.7424C415.028 57.3652 415.332 57.0604 415.709 57.0604C416.085 57.0604 416.39 57.3652 416.39 57.7424C416.39 58.1187 416.086 58.4235 415.709 58.4235ZM419.376 70.8619C418.874 70.8619 418.466 70.4552 418.466 69.9529C418.466 69.4515 418.874 69.043 419.376 69.043C419.875 69.043 420.285 69.4515 420.285 69.9529C420.284 70.4552 419.874 70.8619 419.376 70.8619ZM419.376 64.7535C418.874 64.7535 418.466 64.3486 418.466 63.8463C418.466 63.344 418.874 62.9382 419.376 62.9382C419.875 62.9382 420.285 63.3431 420.285 63.8463C420.284 64.3486 419.874 64.7535 419.376 64.7535ZM419.376 58.6496C418.874 58.6496 418.466 58.2465 418.466 57.7424C418.466 57.2401 418.874 56.8343 419.376 56.8343C419.875 56.8343 420.285 57.2392 420.285 57.7424C420.284 58.2465 419.874 58.6496 419.376 58.6496ZM423.232 71.0863C422.604 71.0863 422.096 70.5795 422.096 69.9529C422.096 69.3228 422.604 68.8178 423.232 68.8178C423.861 68.8178 424.367 69.3219 424.367 69.9529C424.367 70.5795 423.861 71.0863 423.232 71.0863ZM423.232 64.9833C422.604 64.9833 422.096 64.4756 422.096 63.8472C422.096 63.2188 422.604 62.7129 423.232 62.7129C423.861 62.7129 424.367 63.218 424.367 63.8472C424.367 64.4765 423.861 64.9833 423.232 64.9833ZM423.232 58.8793C422.604 58.8793 422.096 58.3716 422.096 57.7433C422.096 57.1149 422.604 56.6072 423.232 56.6072C423.861 56.6072 424.367 57.114 424.367 57.7433C424.367 58.3725 423.861 58.8793 423.232 58.8793ZM427.749 71.3142C426.996 71.3142 426.388 70.7055 426.388 69.9538C426.388 69.1985 426.997 68.5925 427.749 68.5925C428.5 68.5925 429.109 69.1994 429.109 69.9538C429.109 70.7055 428.5 71.3142 427.749 71.3142ZM427.749 65.2094C426.996 65.2094 426.388 64.598 426.388 63.8472C426.388 63.0946 426.997 62.4859 427.749 62.4859C428.5 62.4859 429.109 63.0955 429.109 63.8472C429.109 64.598 428.5 65.2094 427.749 65.2094ZM427.749 59.1055C426.996 59.1055 426.388 58.495 426.388 57.7433C426.388 56.9916 426.997 56.3802 427.749 56.3802C428.5 56.3802 429.109 56.9916 429.109 57.7433C429.109 58.495 428.5 59.1055 427.749 59.1055ZM432.476 71.5403C431.598 71.5403 430.887 70.8324 430.887 69.9538C430.887 69.0761 431.598 68.3628 432.476 68.3628C433.357 68.3628 434.066 69.0761 434.066 69.9538C434.066 70.8324 433.357 71.5403 432.476 71.5403ZM432.476 65.4364C431.598 65.4364 430.887 64.7249 430.887 63.8472C430.887 62.9695 431.598 62.2598 432.476 62.2598C433.357 62.2598 434.066 62.9695 434.066 63.8472C434.066 64.7249 433.357 65.4364 432.476 65.4364ZM432.476 59.3316C431.598 59.3316 430.887 58.6201 430.887 57.7433C430.887 56.8665 431.598 56.1559 432.476 56.1559C433.357 56.1559 434.066 56.8665 434.066 57.7433C434.066 58.6201 433.357 59.3316 432.476 59.3316ZM438.098 83.9797C437.096 83.9797 436.286 83.1654 436.286 82.1616C436.286 81.1614 437.096 80.3499 438.098 80.3499C439.103 80.3499 439.917 81.1614 439.917 82.1616C439.917 83.1654 439.104 83.9797 438.098 83.9797ZM438.098 77.874C437.096 77.874 436.286 77.0606 436.286 76.0595C436.286 75.0566 437.096 74.2397 438.098 74.2397C439.103 74.2397 439.917 75.0566 439.917 76.0595C439.917 77.0606 439.104 77.874 438.098 77.874ZM438.098 71.7683C437.096 71.7683 436.286 70.9558 436.286 69.9538C436.286 68.95 437.096 68.1367 438.098 68.1367C439.103 68.1367 439.917 68.95 439.917 69.9538C439.917 70.9558 439.104 71.7683 438.098 71.7683ZM438.098 65.6635C437.096 65.6635 436.286 64.8501 436.286 63.8472C436.286 62.8426 437.096 62.0327 438.098 62.0327C439.103 62.0327 439.917 62.8426 439.917 63.8472C439.917 64.8501 439.104 65.6635 438.098 65.6635ZM438.098 59.5586C437.096 59.5586 436.286 58.7471 436.286 57.7433C436.286 56.7404 437.096 55.9279 438.098 55.9279C439.103 55.9279 439.917 56.7404 439.917 57.7433C439.917 58.7462 439.104 59.5586 438.098 59.5586ZM438.098 53.4538C437.096 53.4538 436.286 52.6387 436.286 51.6376C436.286 50.6338 437.096 49.8231 438.098 49.8231C439.103 49.8231 439.917 50.6338 439.917 51.6376C439.917 52.6378 439.104 53.4538 438.098 53.4538ZM438.098 47.3472C437.096 47.3472 436.286 46.5339 436.286 45.5337C436.286 44.5299 437.096 43.7165 438.098 43.7165C439.103 43.7165 439.917 44.5299 439.917 45.5337C439.917 46.533 439.104 47.3472 438.098 47.3472ZM443.934 78.0608C442.832 78.0608 441.934 77.1652 441.934 76.0595C441.934 74.9521 442.831 74.0556 443.934 74.0556C445.043 74.0556 445.939 74.9521 445.939 76.0595C445.939 77.1652 445.043 78.0608 443.934 78.0608ZM443.934 71.9551C442.832 71.9551 441.934 71.0586 441.934 69.9538C441.934 68.8464 442.831 67.9499 443.934 67.9499C445.043 67.9499 445.939 68.8464 445.939 69.9538C445.939 71.0586 445.043 71.9551 443.934 71.9551ZM443.934 65.8512C442.832 65.8512 441.934 64.9538 441.934 63.8472C441.934 62.7415 442.831 61.8468 443.934 61.8468C445.043 61.8468 445.939 62.7415 445.939 63.8472C445.939 64.9538 445.043 65.8512 443.934 65.8512ZM443.934 59.7437C442.832 59.7437 441.934 58.8481 441.934 57.7433C441.934 56.6367 442.831 55.7411 443.934 55.7411C445.043 55.7411 445.939 56.6367 445.939 57.7433C445.939 58.8481 445.043 59.7437 443.934 59.7437ZM443.934 53.6389C442.832 53.6389 441.934 52.7424 441.934 51.6376C441.934 50.5301 442.831 49.6336 443.934 49.6336C445.043 49.6336 445.939 50.5301 445.939 51.6376C445.939 52.7424 445.043 53.6389 443.934 53.6389ZM450.199 72.2196C448.954 72.2196 447.949 71.2132 447.949 69.9699C447.949 68.7284 448.954 67.721 450.199 67.721C451.442 67.721 452.445 68.7284 452.445 69.9699C452.444 71.2132 451.442 72.2196 450.199 72.2196ZM450.199 66.113C448.954 66.113 447.949 65.1093 447.949 63.8651C447.949 62.6262 448.954 61.6153 450.199 61.6153C451.442 61.6153 452.445 62.6262 452.445 63.8651C452.444 65.1093 451.442 66.113 450.199 66.113ZM450.199 60.0091C448.954 60.0091 447.949 59.0036 447.949 57.7612C447.949 56.5161 448.954 55.5114 450.199 55.5114C451.442 55.5114 452.445 56.5161 452.445 57.7612C452.444 59.0036 451.442 60.0091 450.199 60.0091ZM456.58 66.3687C455.222 66.3687 454.117 65.2657 454.117 63.9071C454.117 62.5458 455.223 61.4428 456.58 61.4428C457.94 61.4428 459.042 62.5449 459.042 63.9071C459.042 65.2648 457.94 66.3687 456.58 66.3687Z" fill="white"/>
<path d="M482.636 73.8609C479.332 73.8609 476.346 73.4962 473.687 70.8353L477.114 67.4093C478.85 69.1415 481.107 69.3828 482.717 69.3828C484.533 69.3828 486.425 68.7795 486.425 67.2072C486.425 66.1579 485.863 65.433 484.209 65.2703L480.903 64.9486C477.113 64.5875 474.777 62.9348 474.777 59.0618C474.777 54.7098 478.604 52.3716 482.878 52.3716C486.143 52.3716 488.885 52.9365 490.901 54.8296L487.677 58.0947C486.467 57.0069 484.611 56.6861 482.798 56.6861C480.703 56.6861 479.816 57.6532 479.816 58.7007C479.816 59.4667 480.139 60.3543 481.993 60.5152L485.3 60.8379C489.45 61.2401 491.55 63.4586 491.55 67.0052C491.548 71.6415 487.596 73.8609 482.636 73.8609Z" fill="white"/>
<path d="M498.642 64.7474C498.642 67.4485 500.295 69.4238 503.238 69.4238C505.534 69.4238 506.664 68.7785 507.994 67.4485L511.179 70.5518C509.042 72.6899 506.986 73.8599 503.196 73.8599C498.238 73.8599 493.482 71.6021 493.482 63.0938C493.482 56.24 497.19 52.3706 502.632 52.3706C508.476 52.3706 511.783 56.6458 511.783 62.41V64.7465L498.642 64.7474ZM506.141 58.9C505.573 57.6522 504.404 56.7244 502.632 56.7244C500.856 56.7244 499.688 57.6522 499.124 58.9C498.802 59.6678 498.683 60.2327 498.641 61.1605H506.624C506.583 60.2327 506.463 59.6687 506.141 58.9Z" fill="white"/>
<path d="M519.322 64.7474C519.322 67.4485 520.977 69.4238 523.917 69.4238C526.216 69.4238 527.346 68.7785 528.676 67.4485L531.86 70.5518C529.723 72.6899 527.667 73.8599 523.878 73.8599C518.918 73.8599 514.161 71.6021 514.161 63.0938C514.161 56.24 517.87 52.3706 523.314 52.3706C529.159 52.3706 532.465 56.6458 532.465 62.41V64.7465L519.322 64.7474ZM526.821 58.9C526.255 57.6522 525.086 56.7244 523.314 56.7244C521.539 56.7244 520.369 57.6522 519.805 58.9C519.482 59.6678 519.361 60.2327 519.321 61.1605H527.305C527.265 60.2327 527.143 59.6687 526.821 58.9Z" fill="white"/>
<path d="M548.509 73.6195L543.351 64.8672L541.129 67.3717V73.6195H535.891V44.9126H541.129V61.2016L548.106 52.6138H554.437L546.937 61.081L555 73.6204L548.509 73.6195Z" fill="white"/>
<path d="M1066.43 44.2598C1066.67 43.6124 1066.51 42.8032 1066.11 42.5604C1064.73 41.5085 1063.52 42.0749 1062.63 43.1269C1061.58 44.3407 1060.2 46.8493 1059.55 47.8203C1054.13 56.5598 1050 65.8658 1050 65.8658C1050 65.8658 1048.55 61.496 1048.39 58.0164C1048.22 54.7796 1048.06 51.6236 1047.9 50.0861C1047.82 49.4388 1047.58 48.5486 1046.52 48.144C1045.71 47.9012 1044.5 47.7394 1043.69 48.0631C1043.61 49.1151 1043.61 49.6006 1043.13 50.8144C1042.72 52.0282 1039.89 57.45 1039.4 58.3401C1036.98 62.7098 1033.74 68.0506 1033.58 68.3743C1032.93 69.5881 1032.04 71.2066 1033.58 71.8539C1035.11 72.4204 1036.49 72.0967 1037.14 71.1256C1037.3 70.9638 1037.46 70.5592 1037.46 70.5592C1037.46 70.5592 1036.98 70.3164 1037.95 68.0506C1038.27 67.4842 1038.59 66.7559 1039 66.0276C1039.08 65.8658 1039.16 65.7848 1039.24 65.623C1039.32 65.3802 1039.4 65.2184 1039.48 65.0566C1041.1 61.9006 1043.21 57.8546 1045.07 54.294C1045.07 56.398 1045.23 58.9065 1045.47 60.7677C1045.88 64.4092 1046.77 65.9467 1047.09 68.8599C1047.01 70.802 1047.25 71.1256 1048.63 71.5303C1049.92 71.9349 1050.73 71.5303 1051.22 70.3164C1053.16 65.4612 1058.66 54.2131 1063.44 48.144C1064 47.4966 1065.86 45.7164 1066.43 44.2598ZM1110.37 64.4901C1111.26 64.0046 1111.67 62.8717 1110.94 61.9815C1110.21 61.0914 1108.75 61.1723 1108.1 61.5769C1107.54 61.9006 1106.89 62.2243 1105.03 62.3052C1103.25 62.3862 1102.52 61.6579 1101.39 61.6579C1100.09 61.6579 1099.61 62.548 1098.07 64.4901C1097.26 65.4612 1095.48 67.8888 1094.67 67.8888C1093.94 67.8888 1093.7 65.9467 1093.7 63.3572C1093.7 62.1434 1093.22 61.2533 1091.84 61.3342C1090.71 61.4151 1090.55 62.8717 1089.98 63.5191C1088.2 65.5421 1086.82 67.5651 1086.09 67.5651C1085.2 67.5651 1084.88 65.623 1084.88 64.1664C1084.88 64.1664 1085.12 61.8197 1083.02 61.4151C1082.13 61.2533 1081.16 61.7388 1081.16 61.7388C1081.24 61.9006 1081.24 62.0625 1081.24 62.3052C1081 63.2763 1079.14 64.6519 1079.14 64.6519C1077.19 66.1085 1073.23 68.7789 1069.67 68.9408C1065.54 69.1835 1064.81 66.7559 1064.65 65.7848C1068.21 64.4901 1070.56 62.9526 1072.18 61.8197C1073.79 60.525 1074.85 59.1493 1074.77 57.7736C1074.6 55.9125 1072.99 55.2651 1071.61 55.2651C1068.7 55.2651 1063.92 56.4789 1061.66 62.7908C1061.17 62.9526 1059.96 62.9526 1059.39 62.7908C1058.58 62.548 1058.58 62.2243 1058.58 62.2243C1057.77 62.3862 1057.45 62.7908 1057.21 63.5191C1056.8 64.571 1057.37 65.5421 1058.26 66.0276C1058.9 66.3513 1059.96 66.5941 1061.33 66.4322C1061.49 68.3743 1062.79 72.0967 1069.59 71.773C1075.01 71.5303 1081.24 66.9987 1081.81 66.675C1082.05 67.8079 1082.78 71.773 1085.12 71.773C1087.87 71.773 1090.71 67.4842 1090.71 67.4842C1090.71 67.4842 1091.44 71.773 1094.19 71.773C1096.53 71.773 1099.37 68.0506 1100.09 67.2414C1100.66 66.5131 1101.87 65.1375 1102.52 65.1375C1103.17 65.0566 1104.38 66.1085 1107.94 65.3802C1107.94 65.2184 1109.56 64.8947 1110.37 64.4901ZM1070.88 58.2592C1071.2 58.5829 1070.48 59.3111 1069.91 59.7158C1068.21 60.8486 1066.51 61.496 1065.3 61.9006C1066.51 59.2302 1070.4 57.6118 1070.88 58.2592ZM1118.71 55.1842C1116.36 55.346 1113.45 56.1552 1112.39 58.5019C1111.5 60.444 1112.23 62.548 1114.01 64.8947C1115.23 66.3513 1116.28 67.727 1116.6 68.0506C1115.71 68.2125 1113.93 68.1316 1112.07 67.8079C1111.67 67.727 1111.26 67.646 1110.78 67.5651C1109.72 67.2414 1109.4 66.8368 1109.4 66.8368C1108.67 66.9177 1108.1 67.4033 1107.7 67.9697C1107.3 68.5362 1106.89 69.5881 1107.21 70.0737C1107.54 70.4783 1108.1 70.721 1109.32 70.802C1111.91 70.9638 1116.84 71.6112 1117.82 71.773C1119.19 71.9349 1120.16 70.802 1120.41 70.0737C1120.81 69.1835 1120.41 68.2125 1119.92 67.646C1117.57 64.9756 1114.34 62.0625 1115.55 59.5539C1116.12 58.421 1118.71 58.6638 1119.6 58.9065C1121.46 59.473 1122.35 58.8256 1122.75 57.5309C1123.08 56.7217 1122.67 54.8605 1118.71 55.1842ZM1214.68 61.7388C1213.63 60.7677 1212.25 61.0914 1212.25 61.0914C1212.25 61.0914 1212.41 61.4151 1211.6 62.1434C1211.52 62.2243 1211.28 62.3862 1211.28 62.3862C1207.72 65.2184 1203.03 67.5651 1198.09 68.4552C1199.71 67.4842 1203.51 63.6809 1200.92 61.8197C1199.38 60.6868 1196.71 61.1723 1194.21 62.4671C1194.53 61.9815 1195.18 61.0105 1194.93 59.7967C1194.69 58.5829 1192.34 58.2592 1191.05 58.6638C1190.97 59.9585 1190.81 60.6059 1190.56 60.8486C1184.9 65.8658 1177.37 68.8599 1176.81 68.2125C1176.32 67.727 1177.94 65.4612 1178.51 64.6519C1178.99 64.0046 1178.99 63.1954 1178.67 62.6289C1178.18 61.6579 1177.21 61.6579 1175.43 62.0625C1173 62.4671 1171.22 61.496 1169.77 59.2302C1169.04 58.0973 1167.34 58.3401 1166.45 58.9875C1166.69 59.7158 1166.61 60.525 1166.37 61.2533C1164.83 64.7329 1160.38 64.7329 1158.6 63.6C1158.36 62.8717 1157.71 61.496 1156.41 61.3342C1152.45 60.6868 1151.07 63.1954 1150.43 63.9237C1148.97 65.5421 1139.42 69.5072 1137.16 67.727C1135.54 66.3513 1136.91 61.7388 1140.07 56.8026C1144.76 49.4388 1146.87 49.5197 1147.59 50.248C1148.08 50.7335 1148.48 51.7045 1147.59 53.5657C1147.51 53.7276 1147.43 53.8085 1147.43 53.9703C1145.81 56.6407 1145.17 56.4789 1145.17 56.4789C1144.6 58.0973 1145.33 58.9065 1145.81 59.3111C1146.38 59.8776 1147.11 59.6348 1147.35 59.5539C1148.16 59.3111 1148.65 58.5829 1149.05 57.8546C1151.32 54.3749 1152.69 48.7914 1149.05 46.7684C1146.38 45.3118 1141.93 47.2539 1136.99 55.2651C1132.62 62.3862 1131.33 67.8079 1134.57 70.3974C1138.45 73.6342 1146.54 69.5881 1149.13 68.3743C1149.05 68.9408 1149.29 71.773 1151.96 71.6112C1155.36 71.4493 1157.47 68.2934 1158.44 66.8368C1159.73 67.646 1165.56 68.5362 1169.12 63.1954C1169.52 63.5191 1171.79 65.2184 1174.62 65.2184C1173.65 67.0796 1172.28 69.6691 1174.14 71.1256C1176.81 73.2296 1186.03 67.8079 1188.7 66.2704C1187.17 69.0217 1184.49 75.3336 1181.82 80.8362C1180.69 83.102 1179.15 86.177 1180.77 86.9862C1181.99 87.6336 1183.93 86.9862 1184.17 85.2869C1184.58 83.102 1186.6 77.1138 1188.14 73.877C1190.97 67.646 1193.48 64.4092 1197.68 64.4092C1197.44 64.8947 1197.28 65.5421 1195.82 66.9987C1194.29 68.5362 1192.59 68.4552 1192.67 70.1546C1192.75 71.1256 1193.72 71.4493 1193.96 71.4493C1196.15 72.0158 1202.3 70.2355 1204.81 69.3454C1207.64 68.2934 1211.52 66.4322 1214.35 64.6519C1215.65 63.8427 1215.73 62.6289 1214.68 61.7388ZM1152.45 68.3743C1151.96 68.3743 1151.72 67.646 1152.29 66.9177C1154.15 65.5421 1154.96 65.1375 1155.04 65.1375C1156.25 65.1375 1153.91 68.3743 1152.45 68.3743Z" fill="white"/>
<path fill-rule="evenodd" clip-rule="evenodd" d="M762.19 76.8628C764.363 78.6537 766.699 79.6302 769.415 79.8927V79.9225C770.822 80.0578 772.749 79.8058 774.323 79.2749C774.927 79.0712 775.92 78.6231 776.652 78.2327L777.415 78.5889C782.164 80.7881 787.21 80.0642 791.237 76.6055C791.419 76.4489 791.626 76.2579 791.843 76.0478C792.189 75.7209 792.525 75.375 792.849 75.0115C793.201 74.6285 793.52 74.2556 793.746 73.9595C795.86 71.1758 797.403 67.6232 797.939 64.3086C798.173 62.8637 798.23 60.8407 798.07 59.4716C797.586 55.2353 795.41 52.0421 791.818 50.2967C791.321 50.055 790.813 49.8514 790.299 49.6859C789.479 49.4152 788.922 49.2827 788.203 49.2236C787.434 49.1303 786.67 49.1203 785.927 49.1935C785.506 49.2095 785.281 49.2463 784.926 49.3278C784.278 49.4762 783.692 49.6689 783.148 49.9143C782.818 50.0615 782.5 50.2298 782.195 50.4192C781.593 50.7937 780.819 51.4301 780.819 51.5526C780.819 51.611 780.928 51.681 781.139 51.681C782.299 51.8332 783.693 52.2713 784.83 52.843C787.722 54.2944 789.499 56.5601 790.139 59.6092C790.276 60.1809 790.277 60.4487 790.276 61.6463C790.276 62.7896 790.253 63.1525 790.139 63.7726C789.981 64.6575 789.625 65.7903 789.283 66.4787C788.36 68.3524 786.752 69.9461 784.836 70.8882C784.163 71.2178 783.234 71.5678 783.177 71.5095C783.16 71.4896 783.366 71.0101 783.634 70.4384C785.319 66.8946 785.678 63.2248 784.647 60.0753C784.186 58.6659 783.53 57.5558 782.594 56.6015C781.482 55.4686 780.225 54.7896 778.578 54.4396C777.542 54.2162 775.799 54.222 774.727 54.4437C771.451 55.1274 769.091 57.7705 768.241 61.7093C768.058 62.5434 768.013 64.8914 768.155 65.8463C768.413 67.5468 769.026 69.3417 769.885 70.9098C770.068 71.2458 770.182 71.5666 770.182 71.5666C770.109 71.6407 768.902 71.1793 768.127 70.7826C765.599 69.4823 763.913 67.3724 763.194 64.6079C762.693 62.677 762.743 60.1972 763.32 58.4355C764.414 55.09 767.461 52.5828 771.377 51.8052C771.597 51.7602 771.806 51.7124 771.969 51.6751C772.144 51.635 772.266 51.6069 772.296 51.6069C772.364 51.5836 772.285 51.4727 772.022 51.2219C771.499 50.722 770.84 50.2929 770.063 49.9427C769.757 49.8031 769.438 49.6792 769.111 49.5731C768.927 49.5122 768.748 49.4604 768.57 49.4159C768.215 49.3247 767.855 49.2549 767.497 49.2093C767.184 49.1695 766.79 49.1514 766.371 49.1528C765.872 49.1443 765.372 49.1722 764.878 49.2343C764.573 49.2674 764.29 49.31 764.053 49.361C763.504 49.4793 762.971 49.6333 762.458 49.8206C760.112 50.6721 758.042 52.2904 756.741 54.4104C756.166 55.3467 755.6 56.7683 755.327 57.9747C754.891 59.8671 754.891 62.698 755.325 64.843C755.997 68.1866 757.421 71.3445 759.385 73.9047C760.229 75.0235 761.178 76.0286 762.19 76.8628ZM777.151 68.9703C776.984 69.1966 776.805 69.4163 776.613 69.6311C776.455 69.6274 775.812 68.5951 775.379 67.6436C774.129 64.9031 774.068 61.8959 775.225 59.8869C775.353 59.6656 775.55 59.4015 775.757 59.1584C775.827 59.0819 775.901 59.0049 775.98 58.9261L776.348 58.5578C776.459 58.4675 776.549 58.4134 776.601 58.4134C776.795 58.4134 777.659 59.3409 778.019 59.9301C779.488 62.3567 779.13 66.0426 777.151 68.9703ZM775.081 48.3862C775.368 49.2986 775.984 50.3976 776.543 51.0031L776.525 51.002C776.628 51.0953 776.764 51.212 776.764 51.1536C776.793 51.1245 776.856 50.932 776.913 50.7278C777.157 49.7624 777.832 48.6429 778.705 47.7557C781.162 45.2572 784.998 44.4953 788.761 45.753C789.079 45.858 789.359 45.9164 789.416 45.9164C789.547 45.8715 789.536 45.2018 789.416 44.6943C788.872 42.4297 786.359 40.4265 783.589 40.0473C782.867 39.9482 781.43 40.0123 780.747 40.1698C778.946 40.5904 777.226 41.55 776.35 42.6222C775.665 43.4593 775.212 44.3997 774.984 45.4608C774.795 46.3084 774.841 47.6332 775.081 48.3862ZM848.983 72.9129C847.872 74.7019 846.295 75.9435 844.401 76.4733C843.313 76.7807 841.828 76.8813 840.787 76.7136C838.062 76.2931 836.01 74.8126 834.753 72.4323C834.317 71.6852 833.959 70.8476 833.688 69.9282C833.129 68.0264 833.009 65.0014 833.421 62.8708C833.468 62.5676 833.524 62.2932 833.589 62.0585C834.802 57.5941 837.873 55.0649 842.079 55.0649C842.949 55.0649 843.768 55.1722 844.53 55.3822C844.939 55.4878 845.325 55.6271 845.695 55.8031C847.424 56.5882 848.787 57.9851 849.699 59.9244C850.662 61.8935 851.039 64.341 850.828 67.2566C850.667 69.5261 850.069 71.3738 848.983 72.9129ZM835.955 66.9259C835.952 66.6549 835.951 66.3427 835.95 65.9744L835.95 65.876C835.95 65.4556 835.953 65.0928 835.96 64.774C836.094 63.1121 836.483 61.6772 837.096 60.5204C837.77 59.3894 838.65 58.5301 839.681 58.023C840.496 57.5759 840.726 57.5759 842.079 57.5759C843.433 57.5759 843.656 57.6178 844.396 58.0091C845.283 58.4765 846.048 59.1857 846.671 60.1029C847.089 60.7875 847.447 61.5899 847.733 62.5029C847.785 62.6461 847.83 62.7787 847.867 62.9067C847.956 63.3592 848.024 63.8639 848.07 64.3879C848.081 64.7531 848.082 65.1954 848.082 65.7713L848.082 65.7991C848.082 67.2119 848.016 68.1261 847.801 68.9803C847.414 70.3978 846.743 71.6527 845.906 72.5816C845.612 72.8986 845.296 73.1863 844.975 73.4273C844.637 73.6733 844.282 73.8694 843.917 74.008L843.921 73.9665C843.163 74.2943 842.152 74.4043 841.26 74.302C839.851 74.0811 838.573 73.2468 837.6 71.9046C836.7 70.5963 836.111 68.8554 835.955 66.9259ZM867.086 74.5061C865.332 76.2504 862.866 77.0798 860.206 76.7164C858.254 76.4509 856.501 75.5287 855.256 74.1118C855.001 73.8215 854.73 73.4316 854.467 72.9935C853.795 72.0216 853.269 70.8743 852.911 69.5719C852.781 69.096 852.688 68.4319 852.631 67.6849C852.528 66.8202 852.5 65.9114 852.554 64.9677C852.574 64.6106 852.604 64.2617 852.644 63.9211C852.703 63.2146 852.796 62.5846 852.922 62.1214C853.098 61.4705 853.314 60.8597 853.568 60.2908C854.428 58.27 855.804 56.7719 857.638 55.9005C858.963 55.2717 859.938 55.0621 861.535 55.0621C863.749 55.0621 865.577 55.7608 867.098 57.1874C868.353 58.3645 869.269 60.0083 869.773 61.9745C870.939 66.3627 870.001 71.5261 867.423 74.1789C867.315 74.29 867.203 74.3992 867.086 74.5061ZM855.369 67.2713C855.261 65.7689 855.332 63.8596 855.571 62.7846C855.639 62.5131 855.716 62.2499 855.801 61.9955C856.538 60.0871 857.681 58.7197 859.142 57.9937C859.891 57.5745 860.143 57.5745 861.482 57.5745C862.908 57.5745 863.033 57.6024 863.926 58.0915C864.503 58.4046 865.034 58.8303 865.506 59.3507C866.197 60.2141 866.754 61.3173 867.12 62.5842C867.339 63.4528 867.404 64.3934 867.404 65.8746C867.404 67.1246 867.345 68.035 867.171 68.8488C866.852 70.0587 866.405 71.0759 865.835 71.8953C865.38 72.5124 864.764 73.1068 864.147 73.5345C863.679 73.8276 863.167 74.047 862.612 74.1915L862.668 74.2012C862.58 74.2225 862.498 74.2419 862.419 74.2595C861.939 74.3357 861.406 74.3662 860.935 74.3448C860.737 74.3134 860.516 74.2655 860.249 74.2012C859.064 73.9128 858.014 73.1917 857.18 72.1272C856.529 71.2747 856.018 70.2153 855.688 68.999C855.54 68.5338 855.434 67.9301 855.369 67.2713ZM918.368 72.3056C918.346 72.3481 918.325 72.3903 918.303 72.4322C917.647 73.6898 916.137 75.2702 915.036 75.8543C913.64 76.5949 911.508 76.94 909.807 76.7164C907.399 76.39 905.39 75.0526 904.082 72.9344C903.644 72.3099 903.281 71.6272 903.013 70.905C901.332 66.381 902.126 60.7785 904.833 57.7895C906.375 56.0156 908.53 55.0572 911.131 55.0621C913.982 55.0677 916.121 56.0682 917.69 58.1362C918.715 59.4871 919.347 60.943 919.655 62.7395C919.704 62.986 919.742 63.2514 919.77 63.5565C919.845 64.2269 919.882 64.944 919.882 65.7181C919.882 66.5015 919.847 67.2191 919.774 67.8864C919.759 68.0778 919.741 68.2598 919.718 68.4354C919.684 68.7981 919.629 69.0898 919.538 69.4126C919.482 69.6354 919.417 69.8553 919.341 70.0794C919.177 70.6213 918.974 71.1346 918.726 71.633C918.614 71.865 918.495 72.0887 918.368 72.3056ZM905.04 64.1457C905.164 63.1328 905.38 62.2281 905.692 61.4216C905.845 61.0418 906.014 60.6859 906.2 60.3553C906.825 59.3679 907.617 58.6118 908.563 58.1069C909.377 57.6737 909.681 57.534 910.783 57.534C912.592 57.4487 913.517 57.8134 914.842 59.1409C915.219 59.518 915.542 59.9055 915.824 60.3236C916.71 61.76 917.107 63.4861 917.116 65.7991C917.13 67.9929 916.879 69.2338 916.097 70.8602C916.081 70.8936 916.065 70.9269 916.048 70.9602C915.345 72.2799 914.385 73.2832 913.28 73.8128L913.35 73.8226C913.061 73.9617 912.774 74.0736 912.49 74.1596C911.711 74.3434 910.767 74.3803 909.975 74.2555C907.165 73.5944 905.022 70.3474 904.939 66.0873C904.943 65.8355 904.953 65.572 904.97 65.2947C904.99 64.8461 905.012 64.4727 905.04 64.1457ZM972.033 73.6594C971.184 75.1406 970.053 75.9381 968.121 76.4342C967.019 76.7136 965.325 76.7975 964.075 76.6298L964.051 76.6116C963.131 76.4719 961.285 75.9269 961.115 75.7313C961.11 75.7252 961.105 75.7179 961.1 75.7095L961.061 75.6964V75.6117L960.831 75.5315V74.4276C960.831 73.7988 960.97 73.2818 960.998 73.2259C961.024 73.2259 961.059 73.2307 961.103 73.2396C961.22 73.113 961.409 73.1868 962.179 73.511C963.645 74.1258 964.633 74.3214 965.938 74.2376C967.029 74.1714 967.96 73.8625 968.668 73.3664C969.968 72.3604 970.496 70.7101 969.815 69.298C969.728 69.1223 969.625 68.9533 969.502 68.7878C968.905 68.1588 967.895 67.5067 966.248 66.6515C965.076 66.0507 963.737 65.2682 963.269 64.9202C962.689 64.4943 962.231 64.0303 961.89 63.5198C961.032 62.5255 960.771 61.4791 960.871 60.1023C960.99 58.4509 961.801 57.131 963.106 56.273C963.58 55.9514 964.121 55.6911 964.718 55.5065C964.916 55.4446 965.146 55.393 965.399 55.3511C966.256 55.1718 967.209 55.1192 968.234 55.2088C968.348 55.2205 968.465 55.2344 968.582 55.2502C969.847 55.3379 970.945 55.5628 971.214 55.8837C971.227 55.8994 971.239 55.9225 971.25 55.952L971.317 55.9746V56.0377C971.329 56.0554 971.337 56.0726 971.338 56.0892V56.0893C971.338 56.2647 971.338 56.4784 971.334 56.6973C971.34 57.1437 971.301 57.6343 971.234 57.7993C971.216 57.8548 971.195 57.8937 971.17 57.9113C971.143 57.9389 971.103 57.9556 971.052 57.9635C971.033 58.0473 971.015 58.1146 971.003 58.159C970.994 58.1915 970.989 58.2118 970.989 58.2173C970.989 58.2173 970.389 58.0775 969.692 57.9518C968.715 57.7003 968.121 57.6444 966.987 57.7003C965.702 57.7003 965.458 57.8374 964.823 58.1931L964.804 58.2033C964.332 58.4943 963.938 58.8881 963.657 59.3267C963.652 59.3368 963.648 59.3469 963.643 59.3571C963.458 59.847 963.417 60.394 963.527 60.9798C963.694 61.888 964.754 62.7851 967.024 63.9589C970.529 65.7698 971.717 66.7102 972.42 68.2389C972.634 68.6992 972.771 69.2441 972.833 69.8161C972.969 70.6312 972.915 71.461 972.68 72.2444C972.627 72.5057 972.527 72.7491 972.34 73.0991C972.316 73.1489 972.29 73.1983 972.263 73.2474C972.193 73.39 972.116 73.5276 972.033 73.6594ZM811.712 76.0289C811.659 76.0053 811.622 75.9756 811.601 75.9381L811.629 75.9647C811.489 75.797 806.066 54.8735 805.85 53.6913C805.85 53.6543 805.847 53.615 805.842 53.5743C805.722 53.5597 805.722 53.4011 805.722 53.268C805.722 53.2322 805.725 53.2018 805.735 53.1762C805.727 53.1442 805.725 53.1174 805.731 53.0953C805.682 52.9052 805.653 52.7956 805.648 52.7761C805.615 52.721 805.598 52.6772 805.603 52.6423L805.529 52.4338H805.618C805.868 52.2977 807.966 52.3303 808.062 52.4617C808.169 52.6432 810.574 62.0264 811.968 67.6347C812.213 68.6144 812.413 69.4284 812.544 69.9786C812.594 70.1856 812.641 70.3775 812.682 70.5526C812.842 71.1778 813 71.6103 813.061 71.5491C813.061 71.4861 813.115 71.3377 813.191 71.1291C813.283 70.8753 813.408 70.5322 813.507 70.1448C814.454 66.4712 817.071 56.9714 818.012 53.7249C818.19 53.0994 818.304 52.7112 818.328 52.6545C818.467 52.3471 818.579 52.3192 819.527 52.3192C820.49 52.3192 820.601 52.3192 820.713 52.6685C820.751 52.7662 821.089 53.9717 821.571 55.7166C822.853 60.2929 825.132 68.6279 825.589 70.441C825.729 70.972 825.882 71.4751 825.952 71.5449C825.952 71.5449 826.195 71.083 826.375 70.3682C826.398 70.2721 826.424 70.161 826.454 70.036C826.812 68.5218 827.597 65.4045 828.413 62.2205C829.583 57.6205 830.816 52.8491 830.899 52.6545C831.039 52.3471 831.15 52.3192 832.169 52.3192H832.169C832.782 52.3192 833.326 52.3192 833.368 52.4589C833.374 52.4673 833.369 52.5125 833.356 52.5916C833.371 52.6027 833.381 52.6143 833.388 52.6266C833.527 52.7943 827.651 75.7076 827.425 76.0024C827.387 76.04 827.329 76.0705 827.247 76.095C827.23 76.1549 827.22 76.1881 827.217 76.1924C827.205 76.2065 827.18 76.2194 827.142 76.2312C826.899 76.3649 825.553 76.3783 825.091 76.2723C824.958 76.2536 824.869 76.2293 824.85 76.1994C824.844 76.1938 824.832 76.1604 824.813 76.1014C824.726 76.0621 824.674 76.0041 824.634 75.9186C824.48 75.6391 819.911 58.1754 819.738 57.2308C819.599 56.5321 819.431 56.5042 819.292 57.091C819.082 58.139 814.524 75.607 814.396 75.8543C814.392 75.8612 814.387 75.8679 814.383 75.8745L814.355 75.98H814.281C814.274 75.9852 814.266 75.9902 814.258 75.995L814.194 76.2427H814.109C814.108 76.2449 814.107 76.2463 814.106 76.2469C813.869 76.4006 812.177 76.3867 811.926 76.2469L811.908 76.2763C811.904 76.2731 811.899 76.2619 811.891 76.2427H811.767L811.712 76.0289ZM872.688 53.4697C872.682 55.4977 872.682 58.1914 872.682 61.7581C872.682 65.7607 872.72 69.4133 872.756 72.0068C872.765 73.3664 872.78 74.3024 872.802 74.9206C872.813 75.4952 872.82 75.8409 872.822 75.9109C872.811 75.9077 872.8 75.9044 872.791 75.9008L872.696 75.8305C872.708 75.8596 872.741 75.8826 872.791 75.9008L872.822 75.9241C872.822 75.9241 872.822 75.9197 872.822 75.9109C872.822 75.9111 872.823 75.9113 872.824 75.9115C872.824 75.9254 872.824 75.9385 872.824 75.9509C872.805 75.9512 872.792 75.9516 872.786 75.9521L872.825 75.985C872.827 76.0637 872.828 76.1044 872.828 76.1044L872.833 76.1631C872.847 76.1719 872.872 76.1797 872.906 76.1865V76.2162H873.028C873.038 76.2554 873.048 76.279 873.059 76.2888L873.101 76.2833C873.212 76.423 873.659 76.423 874.119 76.423H874.942V76.2567V76.0936C875.02 76.0727 875.075 76.0492 875.101 76.0233C875.282 75.8864 875.282 72.5342 875.282 61.8517C875.282 55.0692 875.174 49.2969 875.148 47.9261C875.145 47.7414 875.143 47.6366 875.143 47.62C875.122 47.5478 875.084 47.4975 875.015 47.4626V47.3252H873.885H872.755V47.3824H872.688V53.4697ZM872.827 75.9509C872.826 75.9509 872.825 75.9509 872.824 75.9509C872.825 75.963 872.825 75.9743 872.825 75.985L872.828 75.987C872.828 75.987 872.827 75.9748 872.827 75.9509ZM885.729 76.1029L885.663 76.3908H884.365C883.403 76.3908 883.04 76.3825 882.998 76.2372L882.987 76.0765C882.987 76.0723 882.986 76.0643 882.984 76.0526L882.94 75.9647C882.772 75.7609 880.438 67.7718 878.778 61.8839C877.813 58.5681 877.068 55.927 877.068 55.7426C877.068 55.7083 877.094 55.6807 877.146 55.6586C877.283 55.4894 877.487 55.452 878.238 55.452C878.612 55.452 878.958 55.5062 879.2 55.5607C879.234 55.5646 879.265 55.5693 879.293 55.5749H879.606L879.829 56.3574C880.007 56.977 880.262 57.8801 880.559 58.941C881.68 62.7262 883.359 68.7084 883.909 70.9958C884.202 72.1975 884.37 72.4756 884.481 71.9599C885.982 65.426 887.216 60.264 887.906 57.6134L888.388 55.6406H888.507C888.821 55.4032 890.565 55.3951 890.815 55.6406H890.843L890.983 56.1368C890.994 56.1771 891.006 56.2197 891.019 56.2645L891.024 56.2834C891.025 56.2847 891.025 56.2861 891.025 56.2875C891.573 58.251 893.068 64.3315 894.093 68.8229C894.93 72.4727 894.958 72.5636 895.195 71.6749C896.243 67.6792 898.644 59.1383 899.46 56.4667C899.551 56.1518 899.61 55.9554 899.629 55.9075C899.633 55.9012 899.637 55.895 899.642 55.889C899.688 55.7495 899.718 55.6682 899.731 55.6532C899.912 55.4296 901.756 55.3877 902.082 55.6532C902.222 55.7929 902.264 55.9187 902.222 56.2121C901.845 57.7422 896.525 75.8906 896.405 76.0429C896.389 76.0638 896.36 76.0829 896.322 76.1003L896.234 76.3908H894.937H893.64L893.477 75.6895C893.342 75.2385 893.124 74.3841 892.852 73.2606C892.531 71.9536 892.114 70.17 891.591 67.8616C890.586 63.4782 889.728 59.8927 889.673 59.8913C889.673 59.8913 889.533 60.1148 889.477 60.3803C888.794 63.6599 885.904 75.9172 885.783 76.0625C885.771 76.0767 885.752 76.0902 885.729 76.1029ZM922.565 76.3152C922.436 76.2978 922.334 76.2727 922.282 76.2399L922.576 76.1455C922.575 76.1283 922.574 76.1015 922.573 76.0654C922.549 76.0628 922.527 76.0598 922.506 76.0564C922.479 76.0564 922.453 76.0564 922.43 76.0565C922.43 76.0516 922.43 76.0464 922.429 76.0408C922.341 76.018 922.292 75.9845 922.278 75.9353L922.391 75.7914V74.9693C922.371 74.4738 922.359 73.7616 922.351 72.7667C922.318 70.9656 922.286 68.5612 922.286 65.9543C922.286 63.5965 922.286 61.7372 922.292 60.2914V55.6196H922.353V55.5819H923.33H924.306V55.6196H924.328V56.1081C924.407 56.4115 924.413 56.9088 924.413 57.724C924.413 58.0838 924.413 58.4198 924.42 58.7007C924.429 58.7759 924.437 58.8432 924.444 58.9013C924.458 59.0187 924.468 59.0983 924.468 59.1283C924.468 59.2573 924.646 59.1589 924.904 58.8366L924.92 58.8139C925.423 58.0935 926.015 57.4974 926.709 57.0191C927.172 56.6966 927.681 56.4298 928.245 56.2133C928.885 55.966 929.588 55.7852 930.361 55.6681C930.72 55.6114 931.097 55.5661 931.493 55.5316C931.99 55.4616 932.453 55.4126 932.801 55.3759C933.147 55.3394 933.378 55.315 933.411 55.2941C933.421 55.2941 933.43 55.2888 933.438 55.2786V52.8515L933.52 51.3535V50.5949L933.563 50.5747L933.577 50.3126L934.623 49.8794C935.195 49.6419 935.711 49.5022 935.781 49.572C935.781 49.572 935.781 49.5761 935.782 49.5841C935.842 49.5889 935.885 49.6075 935.919 49.6382L935.965 49.6251V49.7276C935.968 49.7754 935.974 49.8569 935.983 49.967C936.021 50.4509 936.103 51.4873 936.103 52.642L936.105 55.3821L938.091 55.3849C939.809 55.3866 940.419 55.3862 940.634 55.6774C940.764 55.8529 940.751 56.1345 940.751 56.5866C940.751 57.2444 940.751 57.527 940.61 57.6418V57.6765L940.556 57.6798V57.7729L940.303 57.7881V57.8665V58.0328H938.066C937.054 58.0328 936.449 58.0328 936.094 58.074V64.9971C936.094 71.8523 936.094 72.1863 936.442 72.674C936.916 73.4984 937.446 73.7918 938.512 73.8617C939.028 73.8617 939.726 73.8477 940.042 73.722C940.364 73.634 940.583 73.6199 940.733 73.7086C940.761 73.708 940.781 73.708 940.79 73.708C940.815 73.7328 940.838 73.7751 940.859 73.8306C940.973 73.9986 941.022 74.2911 941.046 74.742C941.046 75.1358 941.046 75.3456 940.995 75.4835C940.993 75.6076 940.974 75.7044 940.924 75.7811C940.904 75.8199 940.877 75.8538 940.842 75.8837C940.823 75.9323 940.797 75.969 940.765 75.9898C940.651 76.061 940.414 76.1225 940.107 76.1694C939.8 76.258 939.259 76.2726 938.308 76.2847C935.642 76.2847 934.414 75.5021 933.685 73.2217C933.545 72.7885 933.475 70.6479 933.406 65.3408L933.266 58.0727C933.264 58.0687 933.262 58.0647 933.26 58.0608H931.842C931.058 58.0158 930.377 58.0432 929.762 58.1494C927.769 58.6806 926.336 59.8408 925.413 61.6597C925.286 61.9417 925.173 62.2377 925.074 62.5476C924.959 62.9038 924.884 63.1808 924.829 63.6632C924.759 64.5494 924.738 66.1475 924.698 69.6236L924.558 76.0024H924.525L924.524 76.089H924.471L924.469 76.1966H924.089C924.057 76.3346 924.014 76.3869 923.957 76.4062C923.622 76.5459 922.505 76.5459 922.282 76.4062L922.565 76.3152ZM922.43 76.0565C922.352 76.0566 922.3 76.0571 922.285 76.0583L922.431 76.1044C922.431 76.1044 922.431 76.0882 922.43 76.0565ZM943.554 76.1682C943.554 76.1685 943.554 76.1687 943.554 76.1687L943.553 76.1682C943.554 76.1682 943.554 76.1682 943.554 76.1682ZM943.554 76.1379C943.525 76.1382 943.504 76.1387 943.493 76.1393L943.553 76.1682C943.428 76.1681 943.346 76.1685 943.326 76.1701L943.409 76.1044C943.409 76.1044 943.408 76.0609 943.407 75.9768C943.406 75.9768 943.405 75.9768 943.404 75.9768C943.403 75.9584 943.402 75.9152 943.401 75.8484C943.311 75.8256 943.262 75.792 943.248 75.7425L943.369 75.7914V74.615C943.349 73.9052 943.336 72.8675 943.329 71.3987C943.296 68.865 943.264 65.4922 943.264 61.8266C943.264 58.4622 943.264 55.8219 943.27 53.7779V47.3768H943.331V47.3252H944.461H945.591V47.3768H945.628H945.669V49.0233L945.768 53.0542V58.4007C945.78 58.4565 945.793 58.4856 945.808 58.4856C945.808 58.4856 945.852 58.4483 945.925 58.3827C945.926 58.3781 945.926 58.3732 945.926 58.3682C945.926 58.1446 947.357 56.7403 948.019 56.3211C949.233 55.5526 950.199 55.301 951.919 55.2871C953.779 55.283 954.771 55.5929 955.851 56.5424C956.496 57.051 957.024 57.719 957.423 58.5387C958.037 59.7962 958.302 60.9295 958.469 63.0618C958.65 65.2318 958.664 75.7411 958.469 76.0164C958.416 76.0694 958.339 76.1084 958.221 76.1348L958.221 76.212H958.139V76.335H957.302C956.784 76.335 956.458 76.335 956.325 76.212H956.296V76.1798C956.294 76.1771 956.291 76.1739 956.289 76.1701H956.126L956.123 76.0429H956.098L956.098 75.7903C956.076 75.7483 956.062 75.6964 956.049 75.6321C956.049 75.5995 956.045 75.4677 956.037 75.2514C956.004 74.2622 955.91 71.5062 955.91 68.3898C955.91 67.1276 955.91 66.0946 955.907 65.2428C955.811 61.3893 955.677 60.8614 955.052 59.6719C954.869 59.3225 954.665 59.0213 954.436 58.766C954.166 58.5083 953.866 58.2992 953.534 58.1362C953.04 57.8938 952.53 57.7451 952.019 57.6824C951.874 57.6792 951.714 57.6779 951.536 57.6779C951.305 57.6779 951.11 57.6779 950.941 57.6805C948.457 57.9356 946.415 60.0766 945.948 62.9598C945.808 63.5327 945.739 66.7465 945.683 70.0903L945.675 70.4359C945.665 72.409 945.627 73.7917 945.578 74.6776L945.543 76.1701H945.319C945.308 76.217 945.297 76.244 945.287 76.2525C945.062 76.3982 943.94 76.3932 943.621 76.2663C943.611 76.2464 943.602 76.2142 943.594 76.1683C943.58 76.1683 943.567 76.1682 943.554 76.1682C943.554 76.166 943.554 76.1558 943.554 76.1379ZM943.621 76.2663C943.603 76.2593 943.588 76.2519 943.575 76.2441L943.634 76.286C943.629 76.2819 943.625 76.2754 943.621 76.2663ZM943.404 75.9768C943.334 75.977 943.288 75.9776 943.274 75.9786L943.404 75.987C943.404 75.987 943.404 75.9836 943.404 75.9768Z" fill="white"/>
<g clip-path="url(#clip0_222_109)">
<path fill-rule="evenodd" clip-rule="evenodd" d="M2008.06 50H1989.56C1985.23 50 1981.73 53.4653 1981.73 57.7401V76.023C1981.73 80.2978 1985.23 83.7631 1989.56 83.7631H2008.06C2012.38 83.7631 2015.89 80.2978 2015.89 76.023V57.7401C2015.89 53.4653 2012.38 50 2008.06 50Z" fill="white"/>
<path fill-rule="evenodd" clip-rule="evenodd" d="M2031.76 66.1446C2031.76 67.3985 2032.12 68.4129 2032.85 69.1876C2033.57 69.9626 2034.59 70.35 2035.91 70.35C2037.22 70.35 2038.24 69.9626 2038.97 69.1876C2039.7 68.4129 2040.06 67.3985 2040.06 66.1446C2040.06 64.8914 2039.7 63.8768 2038.97 63.1016C2038.24 62.3271 2037.22 61.9391 2035.91 61.9391C2034.59 61.9391 2033.57 62.3271 2032.85 63.1016C2032.12 63.8768 2031.76 64.8914 2031.76 66.1446ZM2026.98 57.8364H2031.76V60.0248H2031.83C2032.03 59.7288 2032.3 59.4263 2032.64 59.1187C2032.97 58.8111 2033.36 58.5321 2033.81 58.2811C2034.26 58.0304 2034.75 57.8254 2035.28 57.6656C2035.82 57.5064 2036.38 57.4263 2036.98 57.4263C2038.23 57.4263 2039.35 57.6373 2040.37 58.0588C2041.38 58.4808 2042.26 59.0731 2042.98 59.8368C2043.71 60.6007 2044.27 61.5065 2044.66 62.5546C2045.05 63.6032 2045.25 64.7546 2045.25 66.0078C2045.25 67.1702 2045.07 68.2814 2044.71 69.3414C2044.35 70.401 2043.85 71.3414 2043.19 72.162C2042.53 72.9826 2041.73 73.6381 2040.78 74.1278C2039.84 74.6179 2038.77 74.8629 2037.57 74.8629C2036.48 74.8629 2035.47 74.6975 2034.54 74.3672C2033.61 74.0369 2032.84 73.4729 2032.24 72.675H2032.17V82.2479H2026.98V57.8364Z" fill="white"/>
<path fill-rule="evenodd" clip-rule="evenodd" d="M2064.03 74.4527H2059.05V72.196H2058.98C2058.8 72.5158 2058.56 72.8347 2058.27 73.1534C2057.98 73.4729 2057.63 73.7579 2057.22 74.0083C2056.8 74.2595 2056.33 74.464 2055.8 74.6238C2055.27 74.783 2054.69 74.8629 2054.07 74.8629C2052.76 74.8629 2051.69 74.6632 2050.87 74.2646C2050.05 73.8661 2049.42 73.3132 2048.97 72.6065C2048.52 71.9003 2048.22 71.0678 2048.07 70.1107C2047.92 69.1536 2047.84 68.1163 2047.84 66.9994V57.8364H2053.03V65.9738C2053.03 66.4522 2053.05 66.9479 2053.08 67.4609C2053.12 67.9738 2053.22 68.4471 2053.4 68.8799C2053.57 69.313 2053.83 69.666 2054.19 69.9396C2054.55 70.2132 2055.06 70.35 2055.73 70.35C2056.4 70.35 2056.94 70.2302 2057.36 69.9909C2057.77 69.7515 2058.09 69.4326 2058.31 69.0338C2058.53 68.6352 2058.67 68.1848 2058.74 67.6832C2058.81 67.1821 2058.84 66.6575 2058.84 66.1106V57.8364H2064.03V74.4527Z" fill="white"/>
<path fill-rule="evenodd" clip-rule="evenodd" d="M2067.93 57.8369H2072.91V60.0936H2072.98C2073.14 59.7746 2073.37 59.4557 2073.67 59.1362C2073.97 58.8175 2074.33 58.5326 2074.74 58.2813C2075.16 58.0309 2075.63 57.8259 2076.16 57.6661C2076.69 57.5069 2077.27 57.4268 2077.89 57.4268C2079.2 57.4268 2080.27 57.6264 2081.07 58.025C2081.88 58.4241 2082.51 58.977 2082.96 59.6832C2083.41 60.3899 2083.71 61.2218 2083.87 62.1792C2084.04 63.1363 2084.12 64.1736 2084.12 65.2905V74.4532H2078.93V66.3159C2078.93 65.8374 2078.91 65.3417 2078.88 64.8288C2078.84 64.3161 2078.74 63.843 2078.56 63.4099C2078.39 62.9771 2078.13 62.6236 2077.77 62.35C2077.41 62.0767 2076.9 61.9396 2076.23 61.9396C2075.56 61.9396 2075.02 62.0594 2074.6 62.2987C2074.19 62.5381 2073.87 62.8573 2073.65 63.2559C2073.43 63.6552 2073.29 64.1053 2073.22 64.6064C2073.15 65.1081 2073.12 65.6321 2073.12 66.1793V74.4532H2067.93V57.8369Z" fill="white"/>
<path fill-rule="evenodd" clip-rule="evenodd" d="M2099.08 61.9395H2094.51V67.4783C2094.51 67.9346 2094.54 68.3501 2094.58 68.7263C2094.63 69.1022 2094.73 69.4271 2094.89 69.7007C2095.06 69.9743 2095.3 70.185 2095.64 70.3332C2095.97 70.4819 2096.42 70.5553 2096.97 70.5553C2097.25 70.5553 2097.61 70.5269 2098.06 70.47C2098.51 70.413 2098.85 70.2819 2099.08 70.0766V74.3503C2098.5 74.5557 2097.9 74.6922 2097.28 74.7607C2096.66 74.829 2096.05 74.8633 2095.45 74.8633C2094.57 74.8633 2093.76 74.7718 2093.03 74.5897C2092.29 74.4075 2091.64 74.1169 2091.09 73.7178C2090.54 73.3192 2090.1 72.8006 2089.79 72.1622C2089.48 71.5245 2089.33 70.7493 2089.33 69.8372V61.9395H2086V57.8368H2089.33V52.9136H2094.51V57.8368H2099.08V61.9395Z" fill="white"/>
<path fill-rule="evenodd" clip-rule="evenodd" d="M2112.42 64.2643C2112.44 63.3984 2112.15 62.6574 2111.55 62.0419C2110.95 61.4267 2110.18 61.1188 2109.23 61.1188C2108.66 61.1188 2108.15 61.2103 2107.71 61.3924C2107.27 61.5751 2106.9 61.8085 2106.59 62.0934C2106.28 62.3784 2106.03 62.7087 2105.86 63.0848C2105.69 63.461 2105.59 63.8542 2105.57 64.2643H2112.42ZM2116.81 71.5808C2115.98 72.6294 2114.93 73.4389 2113.66 74.0083C2112.39 74.5777 2111.08 74.8631 2109.72 74.8631C2108.43 74.8631 2107.21 74.6581 2106.07 74.2476C2104.93 73.8372 2103.94 73.2508 2103.09 72.4869C2102.25 71.7235 2101.59 70.8063 2101.1 69.7345C2100.62 68.6635 2100.38 67.4668 2100.38 66.1448C2100.38 64.8232 2100.62 63.6264 2101.1 62.5549C2101.59 61.4839 2102.25 60.5664 2103.09 59.8028C2103.94 59.0394 2104.93 58.4522 2106.07 58.0418C2107.21 57.6316 2108.43 57.4263 2109.72 57.4263C2110.92 57.4263 2112.01 57.6316 2112.99 58.0418C2113.97 58.4522 2114.8 59.0394 2115.48 59.8028C2116.16 60.5664 2116.68 61.4839 2117.05 62.5549C2117.42 63.6264 2117.61 64.8232 2117.61 66.1448V67.7517H2105.57C2105.77 68.7321 2106.22 69.5125 2106.92 70.0937C2107.61 70.6749 2108.46 70.9653 2109.48 70.9653C2110.33 70.9653 2111.05 70.7775 2111.64 70.4013C2112.23 70.0254 2112.74 69.5413 2113.18 68.9482L2116.81 71.5808Z" fill="white"/>
<path fill-rule="evenodd" clip-rule="evenodd" d="M2120.2 57.8369H2125.39V60.5038H2125.46C2126.01 59.4781 2126.67 58.7088 2127.43 58.1961C2128.19 57.6831 2129.15 57.4268 2130.3 57.4268C2130.6 57.4268 2130.9 57.4384 2131.2 57.461C2131.5 57.484 2131.78 57.5293 2132.03 57.5976V62.2815C2131.66 62.1679 2131.3 62.0823 2130.94 62.0251C2130.58 61.9685 2130.21 61.9396 2129.82 61.9396C2128.83 61.9396 2128.04 62.0767 2127.47 62.35C2126.89 62.6236 2126.45 63.0057 2126.13 63.4955C2125.82 63.9858 2125.62 64.5722 2125.53 65.2562C2125.44 65.94 2125.39 66.6923 2125.39 67.5126V74.4532H2120.2V57.8369Z" fill="white"/>
<path fill-rule="evenodd" clip-rule="evenodd" d="M2143.85 62.7257C2143.09 61.7912 2142.08 61.3239 2140.84 61.3239C2140.4 61.3239 2139.97 61.4264 2139.56 61.6315C2139.14 61.8368 2138.93 62.1906 2138.93 62.6914C2138.93 63.1016 2139.15 63.4041 2139.57 63.5975C2140 63.7913 2140.54 63.9624 2141.2 64.1102C2141.86 64.2587 2142.56 64.4179 2143.31 64.5889C2144.06 64.76 2144.76 65.028 2145.42 65.3923C2146.08 65.7573 2146.62 66.253 2147.05 66.8796C2147.47 67.507 2147.69 68.3446 2147.69 69.3926C2147.69 70.4642 2147.45 71.3474 2146.98 72.0422C2146.5 72.7379 2145.9 73.2962 2145.16 73.7177C2144.42 74.1397 2143.59 74.4354 2142.67 74.6065C2141.75 74.7773 2140.84 74.8629 2139.94 74.8629C2138.76 74.8629 2137.57 74.6975 2136.38 74.3672C2135.18 74.0369 2134.16 73.45 2133.33 72.6062L2136.48 69.1533C2136.96 69.7464 2137.5 70.196 2138.09 70.5039C2138.68 70.8115 2139.36 70.9653 2140.15 70.9653C2140.74 70.9653 2141.29 70.88 2141.77 70.7089C2142.26 70.5381 2142.5 70.2251 2142.5 69.7685C2142.5 69.336 2142.28 69.0111 2141.86 68.7944C2141.43 68.578 2140.89 68.3959 2140.23 68.2474C2139.57 68.0993 2138.87 67.9396 2138.12 67.7685C2137.37 67.5977 2136.67 67.3413 2136.01 66.9994C2135.35 66.6575 2134.81 66.1734 2134.39 65.5463C2133.96 64.9195 2133.75 64.0819 2133.75 63.0333C2133.75 62.0535 2133.95 61.21 2134.35 60.5033C2134.75 59.7971 2135.29 59.2159 2135.94 58.7596C2136.6 58.3041 2137.36 57.9678 2138.21 57.7509C2139.06 57.5347 2139.93 57.4263 2140.8 57.4263C2141.91 57.4263 2143.03 57.586 2144.16 57.905C2145.29 58.2245 2146.24 58.7938 2147.03 59.6144L2143.85 62.7257Z" fill="white"/>
<path fill-rule="evenodd" clip-rule="evenodd" d="M2008.04 67.631C2008.02 67.631 2008 67.6297 2007.98 67.6272L2007.78 67.6038C2007.64 67.587 2007.52 67.5147 2007.43 67.4041C2007.35 67.2934 2007.31 67.1537 2007.34 67.0168C2007.43 66.4326 2007.48 65.8282 2007.48 65.2197C2007.48 65.0314 2007.47 64.8292 2007.46 64.5834C2007.45 64.3694 2007.57 64.1714 2007.77 64.0875L2007.96 64.0097C2008.11 63.9447 2008.29 63.9582 2008.43 64.0462C2008.57 64.1336 2008.67 64.2847 2008.68 64.4504C2008.69 64.7324 2008.7 64.9839 2008.7 65.2197C2008.7 65.8698 2008.65 66.5346 2008.55 67.1963C2008.51 67.4486 2008.29 67.631 2008.04 67.631ZM2007.97 69.5339C2007.7 70.297 2007.36 71.0299 2006.95 71.7113C2006.87 71.8365 2006.75 71.9239 2006.6 71.9522C2006.57 71.9587 2006.54 71.962 2006.5 71.962C2006.39 71.962 2006.28 71.9266 2006.19 71.8594L2005.83 71.5909C2005.61 71.4217 2005.56 71.102 2005.73 70.8769C2006.13 70.3529 2006.47 69.7671 2006.73 69.1365C2006.82 68.9257 2007.04 68.8 2007.27 68.8267L2007.54 68.8596C2007.7 68.8782 2007.84 68.9654 2007.92 69.0962C2008 69.2274 2008.02 69.3882 2007.97 69.5339ZM2005.5 73.6425C2004.93 74.2445 2004.3 74.7715 2003.63 75.209C2003.54 75.264 2003.44 75.2926 2003.35 75.2926C2003.3 75.2926 2003.24 75.2853 2003.2 75.2705C2003.05 75.2268 2002.93 75.121 2002.87 74.982L2002.43 73.9472C2002.32 73.6927 2002.43 73.3986 2002.69 73.2839C2003.22 73.0443 2003.72 72.7515 2004.17 72.4129C2004.36 72.2771 2004.61 72.2774 2004.79 72.4139L2005.43 72.8881C2005.55 72.9749 2005.62 73.1066 2005.63 73.2505C2005.65 73.3943 2005.6 73.5368 2005.5 73.6425ZM2005.93 59.3855C2005.83 59.2082 2005.84 58.9864 2005.97 58.8223L2006.08 58.6747C2006.18 58.5392 2006.35 58.4634 2006.52 58.4726C2006.69 58.4818 2006.85 58.5749 2006.93 58.7208C2007.55 59.7371 2008.01 60.8442 2008.3 62.0113C2008.36 62.255 2008.24 62.5065 2008 62.6047L2007.83 62.6794C2007.76 62.7064 2007.69 62.7202 2007.62 62.7202C2007.55 62.7202 2007.47 62.7021 2007.39 62.6662C2007.26 62.5993 2007.16 62.477 2007.12 62.3319C2006.86 61.2757 2006.46 60.2843 2005.93 59.3855ZM1995.19 73.9472L1994.74 74.982C1994.68 75.1213 1994.56 75.2268 1994.42 75.2708C1994.37 75.2853 1994.32 75.2926 1994.27 75.2926C1994.17 75.2926 1994.07 75.2643 1993.98 75.209C1993.31 74.7715 1992.68 74.2445 1992.11 73.6425C1992.01 73.5368 1991.97 73.3943 1991.98 73.2505C1991.99 73.1066 1992.07 72.9747 1992.18 72.8881L1992.82 72.4139C1993 72.2774 1993.26 72.2771 1993.44 72.4129C1993.9 72.7515 1994.4 73.0446 1994.93 73.2839C1995.18 73.3986 1995.3 73.6927 1995.19 73.9472ZM1991.78 71.5909L1991.42 71.8594C1991.33 71.9266 1991.22 71.962 1991.11 71.962C1991.08 71.962 1991.04 71.9587 1991.01 71.9522C1990.86 71.9239 1990.74 71.8362 1990.66 71.7113C1990.26 71.0291 1989.91 70.2965 1989.64 69.5339C1989.59 69.3882 1989.61 69.2271 1989.69 69.0962C1989.78 68.9654 1989.91 68.8782 1990.07 68.8596L1990.34 68.8267C1990.57 68.7992 1990.79 68.9254 1990.88 69.1365C1991.15 69.7671 1991.48 70.3529 1991.88 70.8769C1992.05 71.1022 1992.01 71.4217 1991.78 71.5909ZM1989.06 67.1963C1988.96 66.5349 1988.91 65.87 1988.91 65.2197C1988.91 64.9828 1988.92 64.7313 1988.94 64.4501C1988.95 64.2842 1989.04 64.1333 1989.18 64.0456C1989.32 63.9582 1989.5 63.9447 1989.66 64.0097L1989.84 64.0875C1990.04 64.1714 1990.16 64.3694 1990.15 64.5834C1990.14 64.8292 1990.13 65.0316 1990.13 65.2197C1990.13 65.8282 1990.18 66.4326 1990.28 67.0168C1990.3 67.1537 1990.26 67.2934 1990.18 67.4041C1990.1 67.5147 1989.97 67.587 1989.83 67.6038L1989.64 67.6272C1989.62 67.6297 1989.6 67.631 1989.57 67.631C1989.32 67.631 1989.1 67.4489 1989.06 67.1963ZM1989.31 62.0113C1989.61 60.8426 1990.07 59.7352 1990.68 58.7198C1990.77 58.5738 1990.92 58.4807 1991.09 58.4715C1991.27 58.4629 1991.43 58.5387 1991.53 58.6742L1991.65 58.8226C1991.77 58.9864 1991.79 59.2082 1991.68 59.3855C1991.15 60.2819 1990.75 61.2735 1990.49 62.3324C1990.45 62.4773 1990.35 62.5995 1990.22 62.6665C1990.15 62.7021 1990.07 62.7202 1989.99 62.7202C1989.92 62.7202 1989.85 62.7067 1989.79 62.6797L1989.61 62.6047C1989.37 62.5065 1989.25 62.255 1989.31 62.0113ZM2007.71 57.0279C2007.36 56.4018 2006.69 55.9766 2005.92 55.9766C2004.8 55.9766 2003.89 56.8738 2003.89 57.9807C2003.89 58.4143 2004.04 58.815 2004.27 59.1429C2005.38 60.6953 2006.06 62.7234 2006.06 64.9407C2006.06 69.8121 2002.81 72.4085 1998.81 72.4085C1994.81 72.4085 1991.55 69.8121 1991.55 64.9407C1991.55 62.7585 1992.21 60.7603 1993.29 59.2179C1993.56 58.8782 1993.72 58.4524 1993.72 57.9888C1993.72 56.8819 1992.81 55.9849 1991.69 55.9849C1990.94 55.9849 1990.29 56.3848 1989.94 56.9788C1988.41 59.1696 1987.49 61.9349 1987.49 64.9407C1987.49 72.0243 1992.57 77.787 1998.81 77.787C2005.04 77.787 2010.12 72.0243 2010.12 64.9407C2010.12 61.9571 2009.21 59.2109 2007.71 57.0279Z" fill="#3206FF"/>
</g>
<g clip-path="url(#clip1_222_109)">
<path d="M1734.12 52.0299C1733.07 54.2221 1732.05 56.3839 1730.99 58.6218C1729.93 56.3839 1728.92 54.2069 1727.89 52.0603H1725.02C1725.11 52.243 1725.18 52.38 1725.25 52.5322C1726.66 55.2725 1728.07 57.9976 1729.49 60.7227C1729.63 60.9815 1729.69 61.2251 1729.69 61.5143C1729.69 62.991 1729.69 64.4525 1729.69 65.9293V66.3555H1732.33V65.9293C1732.33 64.4373 1732.33 62.9301 1732.33 61.4382C1732.33 61.1946 1732.38 60.9967 1732.5 60.7836C1733.48 58.8806 1734.48 56.9928 1735.46 55.0899C1735.97 54.1003 1736.5 53.0955 1737.02 52.106V52.0299H1734.13H1734.12ZM1547.91 36.06C1548.95 36.6537 1549.97 37.2627 1551.02 37.8564C1551.09 37.9021 1551.17 37.9173 1551.27 37.963C1551.27 37.8412 1551.3 37.7651 1551.3 37.6737C1551.3 36.9278 1551.3 36.1818 1551.3 35.4358C1551.3 35.1922 1551.21 35.0704 1551.02 34.9639C1550.01 34.3854 1549.01 33.8069 1548.01 33.2131C1547.91 33.1522 1547.82 33.0761 1547.71 33H1547.63C1547.63 33.8678 1547.63 34.7203 1547.63 35.5881C1547.63 35.8164 1547.71 35.9534 1547.91 36.06ZM1568.91 68.563C1565.39 66.523 1561.88 64.483 1558.36 62.4278C1554.9 60.4182 1551.42 58.3934 1547.97 56.3839C1547.74 56.2621 1547.65 56.1251 1547.65 55.851C1547.66 55.1051 1547.65 54.3591 1547.65 53.6131C1547.65 53.537 1547.66 53.4609 1547.69 53.3391C1554.43 57.2516 1561.12 61.149 1567.86 65.0615V62.1537C1564.5 60.2051 1561.14 58.2412 1557.77 56.2925C1554.4 54.3287 1551.02 52.3648 1547.65 50.4009C1547.65 49.8985 1547.65 49.4266 1547.65 48.9546C1547.65 48.4979 1547.62 48.026 1547.68 47.5236C1552.56 50.3704 1557.41 53.1869 1562.3 56.0337C1562.3 55.851 1562.33 55.7293 1562.33 55.6075C1562.33 54.9072 1562.33 54.2069 1562.33 53.5218C1562.33 53.2478 1562.24 53.0955 1562 52.9585C1560.11 51.8776 1558.22 50.7663 1556.33 49.6701C1553.54 48.0412 1550.76 46.4275 1547.97 44.8137C1547.71 44.6615 1547.62 44.5093 1547.63 44.22C1547.65 43.5349 1547.63 42.8499 1547.63 42.1648C1547.63 42.043 1547.63 41.9212 1547.65 41.7385C1552.54 44.5854 1557.37 47.4018 1562.31 50.2639C1562.31 50.0507 1562.31 49.929 1562.31 49.8072C1562.31 49.1221 1562.31 48.437 1562.31 47.7519C1562.31 47.4627 1562.24 47.2952 1561.98 47.1582C1558.7 45.2704 1555.44 43.3675 1552.18 41.4645C1550.76 40.6272 1549.33 39.8051 1547.89 38.983C1547.69 38.8764 1547.63 38.7546 1547.63 38.5263C1547.63 37.8869 1547.63 37.2627 1547.63 36.6233C1547.63 36.5015 1547.63 36.3797 1547.63 36.1818C1546.49 36.8516 1545.38 37.491 1544.3 38.1304V38.6481C1544.3 43.9307 1544.3 49.2287 1544.3 54.5113C1544.3 54.6179 1544.3 54.7093 1544.3 54.8158C1544.31 54.9985 1544.24 55.0898 1544.08 55.1812C1543.86 55.303 1543.63 55.4552 1543.39 55.577C1543.18 55.6836 1543.12 55.8206 1543.12 56.049C1543.12 57.8301 1543.12 59.6266 1543.12 61.4078C1543.12 61.4991 1543.13 61.5904 1543.15 61.7427C1544.67 60.8597 1546.14 60.0072 1547.62 59.1394C1554.82 63.326 1562 67.4973 1569.23 71.7143V71.2728C1569.23 70.5878 1569.21 69.9027 1569.23 69.2176C1569.23 68.9131 1569.14 68.7457 1568.87 68.5934L1568.91 68.563ZM1538.5 72.5212C1538.74 72.3385 1538.95 72.3385 1539.21 72.5212C1539.92 72.9627 1540.66 73.3737 1541.4 73.8C1541.67 73.9522 1541.94 74.1197 1542.21 74.2719C1543.84 73.3281 1545.47 72.3842 1547.08 71.4403C1547.48 71.6687 1547.86 71.8818 1548.25 72.1101C1549.05 71.6382 1549.84 71.1815 1550.68 70.6943C1549.16 69.7961 1547.68 68.9436 1546.17 68.0606C1546.71 67.7561 1547.18 67.4669 1547.66 67.1928C1549.76 68.4107 1551.83 69.6134 1553.98 70.8618C1553.98 69.583 1553.98 68.4107 1553.98 67.2385C1553.98 67.0406 1553.87 66.9797 1553.74 66.8884C1553.01 66.4621 1552.27 66.0358 1551.55 65.6096C1551.29 65.4573 1551.05 65.3203 1550.79 65.1681V63.3716C1549.73 62.7627 1548.68 62.1537 1547.63 61.56C1546.52 62.2146 1545.41 62.854 1544.3 63.4934V66.3098C1543.98 66.4925 1543.68 66.6904 1543.36 66.8579C1543.18 66.9493 1543.12 67.071 1543.12 67.2842C1543.12 67.954 1543.12 68.6239 1543.12 69.2937C1543.12 69.4764 1543.12 69.6439 1543.12 69.8113C1542.27 70.2985 1541.47 70.7857 1540.58 71.2728V64.757C1539.69 65.2746 1538.87 65.7466 1538.07 66.2185C1537.98 67.0406 1538.03 72.4755 1538.12 72.7343C1538.24 72.6582 1538.38 72.6125 1538.48 72.5212H1538.5ZM1640.83 69.0654C1636.71 69.0654 1633.37 72.3994 1633.38 76.5555C1633.4 80.666 1636.66 83.9696 1640.81 83.9848C1645.24 83.9848 1648.32 80.3767 1648.26 76.5555C1648.26 72.3842 1644.97 69.0654 1640.83 69.0654ZM1641.43 81.4576C1639.89 81.6707 1638.55 81.1684 1637.46 80.0418C1635.63 78.1693 1635.54 75.1549 1637.28 73.191C1638.52 71.7904 1640.09 71.2424 1641.92 71.6687C1643.76 72.1101 1644.92 73.3433 1645.47 75.1549C1645.6 75.5964 1645.62 76.0684 1645.69 76.5403C1645.63 79.0218 1643.88 81.1075 1641.43 81.4424V81.4576ZM1684.29 58.6675C1684.22 58.637 1684.14 58.5913 1684.05 58.5457C1684.13 58.5 1684.17 58.4543 1684.22 58.4239C1685.31 57.7388 1685.8 56.5361 1685.5 55.1507C1685.17 53.6131 1684.19 52.6845 1682.71 52.2734C1682.01 52.0907 1681.29 52.0451 1680.58 52.0451C1679.48 52.0451 1678.36 52.0451 1677.21 52.0451V66.3555C1677.33 66.3555 1677.44 66.3707 1677.56 66.3707C1678.75 66.3707 1679.94 66.386 1681.14 66.3707C1681.77 66.3555 1682.42 66.2794 1683.06 66.1728C1684.02 66.0054 1684.84 65.5487 1685.47 64.8027C1686.21 63.9349 1686.48 62.9301 1686.44 61.8036C1686.36 60.3269 1685.68 59.2612 1684.32 58.6675H1684.29ZM1679.84 54.5266C1680.41 54.5266 1680.99 54.4809 1681.56 54.5722C1681.7 54.5875 1681.83 54.6331 1681.95 54.6788C1682.62 54.9224 1682.93 55.3791 1682.93 56.0946C1682.93 56.7797 1682.62 57.2212 1681.94 57.4496C1681.77 57.5104 1681.59 57.5713 1681.42 57.5713C1680.9 57.5866 1680.38 57.5713 1679.82 57.5713V54.5266H1679.84ZM1683.78 62.1081C1683.76 62.8388 1683.39 63.3564 1682.72 63.6152C1682.44 63.7218 1682.12 63.8284 1681.82 63.8436C1681.17 63.874 1680.52 63.8436 1679.82 63.8436V60.1137C1679.91 60.1137 1680 60.0833 1680.08 60.0833C1680.71 60.0985 1681.36 60.0985 1682 60.1594C1682.3 60.1898 1682.62 60.3116 1682.89 60.4639C1683.52 60.7988 1683.81 61.3773 1683.8 62.0928L1683.78 62.1081ZM1694.88 60.9358C1695.59 60.7379 1696.22 60.3725 1696.74 59.8245C1697.67 58.8197 1698.05 57.6018 1698.02 56.2316C1697.98 54.4048 1696.63 52.7149 1694.88 52.243C1694.2 52.0603 1693.52 52.0146 1692.83 52.0146C1691.53 52.0146 1690.23 52.0146 1688.94 52.0146H1688.58C1688.49 52.4713 1688.52 66.0663 1688.61 66.3555C1689.44 66.3555 1690.29 66.3707 1691.12 66.3403C1691.15 66.2794 1691.15 66.2642 1691.15 66.2642C1691.15 64.5439 1691.15 62.8236 1691.16 61.0881C1691.16 61.0576 1691.16 61.0424 1691.16 61.0119C1691.16 61.0119 1691.16 60.9967 1691.18 60.9815C1691.18 60.9815 1691.2 60.9815 1691.24 60.951C1691.32 61.0576 1691.41 61.1642 1691.48 61.2707C1692.58 62.8693 1693.69 64.483 1694.79 66.0815C1694.91 66.2642 1695.06 66.3403 1695.29 66.3403C1696.12 66.3403 1696.95 66.3403 1697.78 66.3403C1697.89 66.3403 1697.99 66.3251 1698.14 66.3098C1696.84 64.5439 1695.6 62.8236 1694.31 61.0728C1694.53 61.0119 1694.7 60.9663 1694.86 60.9054L1694.88 60.9358ZM1691.2 58.8349V54.5418C1691.33 54.5418 1691.44 54.5266 1691.54 54.5266C1692 54.5266 1692.45 54.5266 1692.9 54.5266C1693.19 54.5266 1693.48 54.557 1693.76 54.6179C1695.42 55.029 1695.73 56.7188 1695.14 57.7997C1694.85 58.3325 1694.38 58.6218 1693.81 58.7893C1693.38 58.8958 1691.69 58.9415 1691.2 58.8349ZM1721.14 60.9358C1722.32 60.5857 1723.21 59.8549 1723.76 58.7284C1724.19 57.8149 1724.4 56.8558 1724.24 55.851C1723.95 54.146 1723.02 52.9585 1721.41 52.3496C1720.8 52.1212 1720.15 52.0451 1719.48 52.0451C1718.02 52.0451 1716.54 52.0451 1715.07 52.0451C1714.98 52.0451 1714.91 52.0603 1714.81 52.0755V66.3403C1715.27 66.4316 1717.16 66.4012 1717.44 66.3098V61.0272C1717.58 61.1185 1717.67 61.2099 1717.74 61.3316C1718.85 62.9301 1719.93 64.5134 1721.02 66.1119C1721.16 66.3251 1721.31 66.4164 1721.58 66.4164C1722.4 66.4012 1723.21 66.4164 1724.03 66.4164C1724.13 66.4164 1724.24 66.4012 1724.4 66.386C1723.11 64.62 1721.85 62.8997 1720.57 61.1337C1720.8 61.0728 1720.96 61.0119 1721.14 60.9663V60.9358ZM1719.53 58.8654C1718.85 58.8958 1718.17 58.8654 1717.44 58.8654V54.5113C1717.87 54.5113 1718.29 54.5113 1718.7 54.5113C1719.1 54.5113 1719.51 54.5113 1719.89 54.5875C1721.16 54.8463 1721.85 55.9119 1721.58 57.1755C1721.44 57.8454 1721.07 58.363 1720.42 58.6218C1720.13 58.7436 1719.81 58.8349 1719.51 58.8501L1719.53 58.8654ZM1656.81 78.291C1658.33 77.8952 1659.33 76.9361 1659.83 75.429C1660.27 74.1045 1660.24 72.8104 1659.53 71.5773C1658.71 70.1767 1657.46 69.446 1655.87 69.3851C1654.19 69.3242 1652.52 69.3546 1650.86 69.3546C1650.8 69.3546 1650.74 69.3699 1650.66 69.3851V83.6499H1653.27V78.291C1653.3 78.291 1653.33 78.2758 1653.35 78.2606C1653.42 78.3672 1653.5 78.4737 1653.58 78.5803C1654.68 80.1788 1655.78 81.7925 1656.88 83.391C1657.02 83.589 1657.15 83.6803 1657.41 83.6651C1658.27 83.6498 1659.12 83.6651 1659.98 83.6651C1660.05 83.6651 1660.13 83.6498 1660.25 83.6194C1658.97 81.8534 1657.71 80.1331 1656.43 78.3824C1656.6 78.3367 1656.72 78.291 1656.84 78.2606L1656.81 78.291ZM1653.27 76.1749V71.8513C1653.39 71.8513 1653.49 71.8209 1653.58 71.8209C1654.26 71.8361 1654.93 71.8209 1655.6 71.897C1656.48 72.0036 1657.11 72.4907 1657.38 73.3737C1657.67 74.3024 1657.35 75.7334 1655.84 76.0988C1655.36 76.2206 1653.83 76.2663 1653.26 76.1749H1653.27ZM1622.92 66.3707C1623.66 66.3707 1624.4 66.3707 1625.14 66.3707C1625.38 66.3707 1625.5 66.2946 1625.58 66.0663C1625.98 65.031 1626.42 64.011 1626.84 62.9758C1626.89 62.8693 1626.94 62.7779 1626.98 62.6713H1632.06C1632.12 62.8084 1632.18 62.9301 1632.22 63.0672C1632.63 64.0567 1633.04 65.0615 1633.44 66.051C1633.54 66.2642 1633.64 66.3707 1633.88 66.3555C1634.64 66.3403 1635.39 66.3555 1636.15 66.3555C1636.24 66.3555 1636.33 66.3403 1636.46 66.3251C1634.47 61.5448 1632.49 56.7797 1630.53 52.0299H1628.46C1626.5 56.7949 1624.53 61.5448 1622.56 66.3403C1622.71 66.3403 1622.81 66.3707 1622.9 66.3707H1622.92ZM1629.46 55.851C1629.49 55.851 1629.52 55.851 1629.55 55.851C1630.08 57.2669 1630.59 58.6827 1631.12 60.1442H1627.87C1628.4 58.6979 1628.93 57.2669 1629.46 55.8358V55.851ZM1705.3 52.0451C1703.34 56.8101 1701.37 61.56 1699.4 66.3555H1702.3C1702.79 65.1376 1703.29 63.9197 1703.81 62.7018H1708.89C1708.96 62.8236 1709 62.9454 1709.05 63.0519C1709.45 64.0567 1709.88 65.0615 1710.28 66.0663C1710.37 66.2794 1710.48 66.386 1710.72 66.3707C1711.48 66.3555 1712.23 66.3707 1712.99 66.3707C1713.08 66.3707 1713.17 66.3555 1713.3 66.3251C1711.31 61.5296 1709.33 56.7797 1707.37 52.0299H1705.3V52.0451ZM1704.71 60.1442C1705.24 58.6979 1705.75 57.2821 1706.28 55.8663C1706.31 55.8663 1706.34 55.8663 1706.37 55.8663C1706.89 57.2821 1707.41 58.6979 1707.94 60.1594H1704.7L1704.71 60.1442ZM1672.83 69.3851C1670.87 74.1501 1668.9 78.9 1666.93 83.6803H1669.83C1669.89 83.5433 1669.95 83.4215 1669.99 83.2997C1670.4 82.3101 1670.82 81.3054 1671.21 80.3158C1671.31 80.0722 1671.43 79.9961 1671.68 79.9961C1673.16 79.9961 1674.63 79.9961 1676.11 79.9961C1676.36 79.9961 1676.49 80.0875 1676.58 80.3158C1676.95 81.2749 1677.35 82.2188 1677.74 83.1627C1677.81 83.3301 1677.89 83.5128 1677.97 83.6803H1680.87C1678.87 78.9 1676.89 74.1501 1674.93 69.3851H1672.85H1672.83ZM1672.24 77.4537C1672.77 75.9922 1673.3 74.5764 1673.81 73.1606C1673.84 73.1606 1673.87 73.1606 1673.89 73.1606C1674.43 74.5764 1674.93 75.9922 1675.47 77.4537H1672.24ZM1618.7 71.7448C1619.57 72.0036 1620.29 72.5212 1620.89 73.191C1621.06 73.3737 1621.21 73.4346 1621.45 73.4346C1622.22 73.4346 1622.99 73.4346 1623.76 73.4346C1623.87 73.4346 1623.98 73.4194 1624.08 73.4042C1623.01 70.6639 1619.76 68.563 1616.15 69.1719C1612.59 69.7809 1609.93 73.0693 1610.07 76.7382C1610.22 80.666 1613.33 83.6803 1616.91 83.9695C1620.29 84.2436 1623.21 81.9752 1623.99 79.7221C1623.87 79.7221 1623.73 79.7069 1623.61 79.7069C1622.93 79.7069 1622.25 79.7373 1621.57 79.7069C1621.17 79.6916 1620.85 79.783 1620.59 80.1027C1620.4 80.331 1620.15 80.529 1619.91 80.6964C1618.86 81.4728 1617.66 81.7012 1616.39 81.3815C1613 80.5137 1611.27 76.0379 1614.05 73.054C1615.32 71.6839 1616.89 71.2272 1618.7 71.76V71.7448ZM1613.51 64.0872C1613.87 63.3107 1613.95 62.4734 1613.89 61.6361C1613.81 60.5704 1613.37 59.657 1612.57 58.9415C1612.04 58.4696 1611.44 58.1346 1610.79 57.891C1610.34 57.7236 1609.89 57.5866 1609.43 57.4191C1609.1 57.2821 1608.75 57.1451 1608.45 56.9472C1607.89 56.597 1607.7 55.9728 1607.88 55.2421C1608.03 54.6484 1608.56 54.2525 1609.19 54.2373C1609.93 54.2069 1610.47 54.5418 1610.72 55.1812C1610.79 55.3791 1610.84 55.5922 1610.88 55.8054C1611.32 55.8663 1613.27 55.851 1613.54 55.7749C1613.54 55.7445 1613.54 55.7293 1613.54 55.6988C1613.54 55.5922 1613.51 55.5009 1613.51 55.3943C1613.28 53.7501 1612.38 52.6236 1610.85 52.0451C1609.28 51.4513 1607.79 51.6797 1606.5 52.8063C1605.34 53.811 1605.01 55.1507 1605.22 56.6275C1605.38 57.8606 1606.05 58.7588 1607.12 59.3373C1607.38 59.4896 1607.67 59.6113 1607.94 59.7179C1608.45 59.931 1608.98 60.1137 1609.48 60.3269C1609.82 60.4791 1610.16 60.6466 1610.49 60.8293C1611.41 61.3773 1611.4 62.7627 1610.94 63.3564C1610.44 64.011 1609.78 64.2546 1608.98 64.1328C1608.19 64.011 1607.73 63.5239 1607.51 62.7779C1607.47 62.6104 1607.44 62.443 1607.39 62.2603H1604.66C1604.66 62.3669 1604.66 62.4278 1604.66 62.4887C1604.77 63.5239 1605.1 64.4525 1605.84 65.1833C1607.14 66.4773 1608.71 66.9036 1610.49 66.4925C1611.86 66.1728 1612.91 65.3812 1613.49 64.0719L1613.51 64.0872ZM1653.44 63.8893H1648.5C1648.41 63.4173 1648.44 60.7988 1648.53 60.4791H1653.21V58.0281H1648.47V54.5113H1653.42V52.0603C1652.76 51.9842 1646.1 52.0146 1645.84 52.0907V66.3403C1646.31 66.4164 1653.17 66.4012 1653.44 66.3251V63.9045V63.8893ZM1596.78 80.1636C1596.75 80.1636 1596.72 80.1636 1596.69 80.1636C1595.43 76.5555 1594.16 72.9627 1592.91 69.3699H1590.15C1591.99 74.1501 1593.83 78.9152 1595.66 83.6499H1597.83C1599.66 78.8848 1601.49 74.1501 1603.33 69.3699H1600.57C1599.3 72.9779 1598.05 76.5707 1596.78 80.1484V80.1636ZM1638.87 54.5418V66.3707C1639.76 66.3707 1640.62 66.4012 1641.51 66.3403V54.5113H1644.14V52.0603H1636.25C1636.19 52.6693 1636.21 54.2221 1636.3 54.5418H1638.87ZM1624.96 69.4307V71.8361H1627.57V83.6651H1630.2V71.8209H1632.81C1632.89 71.3337 1632.87 69.6439 1632.8 69.3851C1631.95 69.309 1625.24 69.3394 1624.96 69.4307ZM1617.63 57.5104V60.4791C1617.63 61.4534 1617.63 62.4278 1617.63 63.4021C1617.63 64.3764 1617.63 65.366 1617.63 66.3555H1620.25V54.5113H1622.89V52.0451H1615.02V54.5266H1617.62V57.4952L1617.63 57.5104ZM1669.36 63.8893C1668.62 63.8893 1667.91 63.8893 1667.2 63.8893C1666.49 63.8893 1665.78 63.8893 1665.02 63.8893V52.0451H1662.41V66.3251C1662.79 66.4012 1669.07 66.4012 1669.36 66.3251V63.9045V63.8893ZM1674.22 52.0603H1671.67V66.3555H1674.24C1674.31 65.8988 1674.3 52.3191 1674.24 52.0603H1674.22ZM1662.62 83.6651H1665.2V69.3851H1662.62V83.6651ZM1605.07 83.6651H1607.65V69.3851H1605.07V83.6651ZM1540.58 63.1281V50.066C1539.72 50.5684 1538.89 51.0403 1538.09 51.5122C1538.01 52.2125 1538.04 64.2546 1538.13 64.5439C1538.97 64.0567 1539.8 63.5848 1540.6 63.1128L1540.58 63.1281ZM1533.05 70.7704C1533.2 70.6943 1533.3 70.6334 1533.41 70.5725C1534 70.2376 1534.57 69.8722 1535.17 69.5525C1535.46 69.4003 1535.55 69.2328 1535.55 68.8979C1535.55 65.3964 1535.55 61.8949 1535.55 58.4087V57.9367C1535.45 57.9824 1535.4 57.9824 1535.36 58.0128C1534.65 58.4239 1533.95 58.8349 1533.23 59.246C1533.03 59.3525 1533.02 59.4896 1533.02 59.6875C1533.02 63.2803 1533.02 66.8579 1533.02 70.4507C1533.02 70.5421 1533.03 70.6487 1533.05 70.7704ZM1553.42 39.2418C1556.32 40.9316 1559.22 42.6063 1562.12 44.2961C1562.18 44.3418 1562.27 44.357 1562.34 44.3875V41.5406C1559.31 39.7746 1556.29 38.0087 1553.22 36.2427C1553.19 36.3188 1553.18 36.334 1553.18 36.3645C1553.18 37.217 1553.18 38.0696 1553.18 38.9069C1553.18 39.1048 1553.3 39.1657 1553.42 39.2418ZM1540.96 76.3576C1539.4 75.4594 1537.91 74.5916 1536.43 73.7239C1536.13 73.8913 1535.85 74.0436 1535.54 74.211V71.014C1535.45 71.014 1535.43 71.014 1535.4 71.0445C1534.66 71.4707 1533.92 71.9122 1533.18 72.3233C1533.02 72.4146 1533 72.5364 1533 72.7039C1533 73.6173 1533 74.5307 1533 75.4442C1533 75.6573 1533.08 75.7943 1533.26 75.9009C1533.95 76.2967 1534.63 76.6925 1535.31 77.0884C1535.66 77.2863 1536.01 77.4842 1536.35 77.6973C1536.59 77.5603 1536.84 77.4385 1537.05 77.2863C1537.24 77.1493 1537.41 77.134 1537.62 77.2863C1537.91 77.469 1538.21 77.6212 1538.51 77.8039C1539.31 77.3319 1540.11 76.8752 1540.94 76.3881L1540.96 76.3576ZM1545.67 82.5233C1546.55 83.0409 1547.38 83.5281 1548.22 84.0152C1551.03 82.3863 1553.84 80.7421 1556.68 79.0827C1555.79 78.5651 1554.97 78.0931 1554.13 77.5907C1551.3 79.2349 1548.51 80.8639 1545.66 82.5233H1545.67ZM1547.35 78.5651C1546.49 78.0627 1545.67 77.5907 1544.81 77.0884C1542.47 78.4585 1540.14 79.8134 1537.77 81.1836C1537.91 81.2749 1538 81.3358 1538.09 81.3967C1538.72 81.7621 1539.36 82.1122 1539.98 82.5081C1540.22 82.6603 1540.38 82.6451 1540.63 82.5081C1542.74 81.2597 1544.87 80.0418 1546.98 78.7934C1547.09 78.7325 1547.2 78.6564 1547.33 78.5651H1547.35ZM1553 72.3233C1550.84 73.5869 1548.66 74.8504 1546.5 76.0988C1546.43 76.1445 1546.35 76.2054 1546.26 76.2815C1547.12 76.7839 1547.95 77.2558 1548.75 77.7278C1549.67 77.2863 1555.55 73.8304 1555.76 73.6021C1555.02 73.1758 1554.28 72.7496 1553.54 72.3081C1553.34 72.1863 1553.19 72.2015 1553 72.3081V72.3233ZM1576.89 62.6561C1573.4 60.6313 1569.92 58.6066 1566.44 56.5666C1566.36 56.5209 1566.27 56.4904 1566.13 56.4296C1566.13 56.9319 1566.15 57.3887 1566.13 57.8454C1566.13 58.1346 1566.21 58.2869 1566.47 58.4391C1569.91 60.4182 1573.32 62.4278 1576.77 64.4221C1576.87 64.483 1576.98 64.5439 1577.17 64.6504C1577.17 64.0872 1577.17 63.6152 1577.17 63.1433C1577.17 62.9149 1577.1 62.7779 1576.9 62.6713L1576.89 62.6561ZM1562.04 71.6839C1560.55 70.8313 1559.05 69.9484 1557.56 69.0958C1557.47 69.0349 1557.36 68.9893 1557.22 68.9284C1557.22 69.0958 1557.21 69.2176 1557.21 69.3242C1557.21 70.3442 1557.21 71.349 1557.21 72.369C1557.21 72.6278 1557.28 72.78 1557.51 72.9018C1559.01 73.7543 1560.5 74.6373 1561.98 75.4898C1562.07 75.5507 1562.18 75.5964 1562.34 75.6725C1562.34 75.4746 1562.34 75.3681 1562.34 75.2463C1562.34 74.2263 1562.34 73.2215 1562.34 72.2015C1562.34 71.9427 1562.25 71.7904 1562.04 71.6687V71.6839ZM1533.94 46.9603C1533.94 50.2639 1533.94 53.5522 1533.94 56.8558C1533.94 56.9472 1533.95 57.0385 1533.98 57.1907C1534.53 56.871 1535.04 56.5666 1535.52 56.2925V45.7728C1535.4 45.8337 1535.31 45.8642 1535.22 45.9099C1534.89 46.1078 1534.56 46.3057 1534.21 46.4884C1534.01 46.5949 1533.94 46.7319 1533.94 46.9603ZM1583.89 60.9206C1581.39 59.4895 1578.91 58.0281 1576.4 56.5818C1576.3 56.5209 1576.19 56.46 1576.01 56.3687C1576.01 56.9319 1576.01 57.4191 1576.01 57.9215C1576.01 58.1346 1576.09 58.2412 1576.25 58.3325C1578.82 59.8245 1581.39 61.3164 1583.97 62.8084C1584.05 62.854 1584.12 62.8693 1584.24 62.9149C1584.24 62.4278 1584.23 61.9863 1584.24 61.5448C1584.26 61.2403 1584.15 61.0728 1583.89 60.9206ZM1540.58 48.437V41.4036C1540.02 41.7233 1539.52 42.0125 1539.04 42.3018C1538.97 43.063 1539 49.0307 1539.09 49.32C1539.58 49.0307 1540.08 48.7415 1540.58 48.4522V48.437ZM1540.6 40.2313V33.1979C1540.05 33.5176 1539.54 33.8069 1539.06 34.0961C1538.98 34.6442 1539.01 40.8099 1539.09 41.1143C1539.6 40.8099 1540.11 40.5206 1540.6 40.2313ZM1558.11 75.2767C1557.37 75.703 1556.63 76.1445 1555.89 76.5707C1555.8 76.6316 1555.71 76.6925 1555.56 76.7839C1556.38 77.2558 1557.15 77.6973 1557.9 78.154C1558.08 78.2606 1558.21 78.1997 1558.36 78.1236C1559.13 77.6669 1559.9 77.2254 1560.67 76.7687C1560.74 76.723 1560.79 76.6621 1560.88 76.6012C1560.06 76.1292 1559.29 75.6878 1558.52 75.231C1558.36 75.1245 1558.24 75.2158 1558.11 75.2919V75.2767ZM1569.73 65.8075C1569.73 66.051 1569.8 66.1881 1570.02 66.3251C1571.33 67.071 1572.63 67.8475 1573.94 68.5934C1574.03 68.6543 1574.14 68.6848 1574.26 68.7457V66.934C1572.78 66.0815 1571.3 65.2137 1569.73 64.3003C1569.73 64.8636 1569.73 65.3355 1569.73 65.7922V65.8075ZM1579.15 54.2221C1580.32 54.8919 1581.48 55.577 1582.64 56.2469C1582.7 56.2925 1582.79 56.3078 1582.87 56.3382V54.557C1581.57 53.7958 1580.27 53.0499 1578.91 52.2582C1578.91 52.8367 1578.91 53.3239 1578.91 53.811C1578.91 54.0242 1578.97 54.1307 1579.15 54.2373V54.2221ZM1574.67 55.5618C1573.5 54.8767 1572.34 54.2069 1571.15 53.5066V55.3487C1572.31 56.0337 1573.47 56.7036 1574.67 57.4039V55.5618ZM1533.94 45.0573C1533.94 45.1639 1533.94 45.2704 1533.97 45.4531C1534.53 45.1334 1535.05 44.8442 1535.54 44.5245C1535.6 43.1848 1535.57 41.3275 1535.48 41.0534C1535.07 41.297 1534.66 41.5406 1534.24 41.769C1534.03 41.8907 1533.94 42.0278 1533.94 42.2713C1533.95 43.2 1533.94 44.1134 1533.94 45.0421V45.0573ZM1576.31 52.5475C1576.63 52.7454 1576.96 52.9281 1577.28 53.126C1577.37 53.1716 1577.48 53.2173 1577.6 53.2934C1577.6 52.7149 1577.6 52.1821 1577.6 51.6493C1577.6 51.5731 1577.55 51.4666 1577.49 51.4361C1577.05 51.1773 1576.62 50.9185 1576.1 50.6293C1576.1 51.2382 1576.1 51.771 1576.1 52.3191C1576.1 52.4104 1576.21 52.5018 1576.3 52.5627L1576.31 52.5475Z" fill="white"/>
</g>
<path d="M641.251 48.3145C642.732 47.0397 643.676 45.1275 643.676 43.0114C643.676 39.136 640.537 36 636.657 36H621.726V61.4959H637.933C641.813 61.4959 644.952 58.3598 644.952 54.4845C644.952 51.8074 643.446 49.4873 641.251 48.3145Z" fill="white"/>
<path d="M675.963 65.3203H665.754V90.8162H675.963C683.008 90.8162 688.725 85.1051 688.725 78.0682C688.725 71.0314 683.008 65.3203 675.963 65.3203Z" fill="white"/>
<path d="M675.964 61.4959H660.65C653.605 61.4959 647.888 55.7848 647.888 48.7479C647.888 41.7111 653.605 36 660.65 36H675.964C683.008 36 688.726 41.7111 688.726 48.7479C688.726 55.7848 683.008 61.4959 675.964 61.4959Z" fill="white"/>
<path d="M649.164 90.8162H621.726V65.3203H649.164C656.208 65.3203 661.926 71.0314 661.926 78.0682C661.926 85.1051 656.208 90.8162 649.164 90.8162Z" fill="white"/>
<g clip-path="url(#clip2_222_109)">
<path d="M1287.14 47L1275 59.0156V83.0467H1299.27L1311.41 71.0312V47H1287.14ZM1303.32 71.0312H1295.3C1294.23 71.0294 1293.16 70.8176 1292.17 70.4078C1291.18 69.998 1290.27 69.3983 1289.52 68.643C1288.76 67.8878 1288.16 66.9918 1287.75 66.0064C1287.34 65.021 1287.13 63.9656 1287.14 62.9006V55.0104H1303.32V71.0312ZM1373.31 48.1482H1377.03V51.8463H1375.2C1374.7 51.8445 1374.22 51.6454 1373.86 51.2926C1373.51 50.9397 1373.31 50.4619 1373.31 49.9638V48.1482ZM1335.74 62.5401C1335.74 57.7606 1332.32 54.7033 1327.85 54.7033C1326.74 54.6687 1325.62 54.8622 1324.58 55.272C1323.54 55.6818 1322.6 56.299 1321.81 57.0854C1321.02 57.8717 1320.4 58.8103 1319.99 59.8428C1319.59 60.8754 1319.4 61.9798 1319.44 63.0875C1319.44 67.9605 1322.9 71.2314 1327.82 71.2314C1331.64 71.2314 1334.64 69.2622 1335.53 65.9913H1331.92C1331.25 67.3263 1329.78 68.1407 1327.92 68.1407C1325.41 68.1407 1323.45 66.6922 1323.11 63.8151H1335.68C1335.68 63.4213 1335.74 63.0208 1335.74 62.5401ZM1327.85 57.7606C1330.03 57.7606 1331.62 58.8821 1332.01 61.1784H1323.3C1323.54 60.1732 1324.12 59.2822 1324.96 58.6585C1325.79 58.0348 1326.81 57.7173 1327.85 57.7606ZM1347.41 54.7033C1346.37 54.6684 1345.33 54.884 1344.39 55.3316C1343.45 55.7792 1342.64 56.4454 1342.01 57.2733V54.9436H1338.38V70.9644H1342.12V62.4801C1342.12 59.603 1343.83 58.061 1346.16 58.061C1348.24 58.061 1349.53 59.3627 1349.53 61.9994V70.9911H1353.26V60.9381C1353.27 56.9729 1350.91 54.7033 1347.43 54.7033H1347.41ZM1362.82 66.6321L1358.47 54.9436H1354.43L1360.82 70.9644H1364.8L1371.22 54.9436H1367.24L1362.82 66.6321ZM1377.01 70.9911V54.9703H1373.31V70.9911H1377.01ZM1389.06 54.9703C1388.08 54.9357 1387.11 55.1706 1386.26 55.649C1385.41 56.1274 1384.7 56.8306 1384.23 57.6805V54.9436H1380.56V70.9644H1384.29V63.3011C1384.29 59.9635 1385.94 58.3013 1389.01 58.3013H1390.36V54.9637L1389.06 54.9703ZM1399.4 71.2581C1400.5 71.285 1401.6 71.0892 1402.62 70.6826C1403.64 70.2761 1404.57 69.6673 1405.34 68.8937C1406.12 68.12 1406.73 67.1977 1407.13 66.1833C1407.53 65.1689 1407.72 64.0836 1407.69 62.9941C1407.69 61.9167 1407.47 60.8499 1407.06 59.8545C1406.64 58.8592 1406.03 57.9548 1405.26 57.193C1404.49 56.4312 1403.58 55.8269 1402.57 55.4146C1401.57 55.0023 1400.49 54.7901 1399.4 54.7901C1398.31 54.7901 1397.23 55.0023 1396.23 55.4146C1395.22 55.8269 1394.31 56.4312 1393.54 57.193C1392.77 57.9548 1392.16 58.8592 1391.74 59.8545C1391.33 60.8499 1391.11 61.9167 1391.11 62.9941C1391.08 64.0832 1391.28 65.1672 1391.68 66.1799C1392.09 67.1925 1392.7 68.1125 1393.48 68.8836C1394.25 69.6546 1395.18 70.2605 1396.2 70.6642C1397.23 71.0679 1398.32 71.2609 1399.42 71.2314L1399.4 71.2581ZM1399.4 67.9872C1396.77 67.9872 1394.91 66.018 1394.91 62.9941C1394.91 59.9701 1396.77 58.0009 1399.4 58.0009C1402.03 58.0009 1403.9 59.9635 1403.9 62.9941C1403.9 66.0247 1402.05 67.9605 1399.42 67.9605L1399.4 67.9872ZM1444.39 48.1482H1446.93V50.6915H1445.67C1445.33 50.6915 1444.99 50.555 1444.75 50.3122C1444.5 50.0693 1444.37 49.7399 1444.37 49.3964L1444.39 48.1482ZM1417.36 71.2314C1421.41 71.2314 1423.75 69.1754 1423.75 66.265C1423.75 63.9687 1422.28 62.667 1419.17 62.1196L1416.59 61.6323C1414.05 61.1517 1413.38 60.5442 1413.38 59.5162C1413.38 58.0944 1414.6 57.1265 1417.05 57.1265C1419.5 57.1265 1420.87 58.1211 1421.1 59.9368H1423.61C1423.34 56.8194 1421.12 55.0104 1417.21 55.0104C1413.29 55.0104 1410.88 56.9462 1410.88 59.6831C1410.88 61.7391 1412.19 63.1676 1415.43 63.7684L1417.98 64.2223C1420.48 64.6762 1421.25 65.2837 1421.25 66.4986C1421.25 68.0673 1419.9 69.1287 1417.48 69.1287C1415.07 69.1287 1413.44 68.0673 1413.14 66.1315H1410.63C1410.88 69.3556 1413.48 71.2314 1417.36 71.2314ZM1437.7 63.8886C1437.7 67.1328 1435.62 68.9151 1432.98 68.9151C1430.62 68.9151 1429.09 67.5266 1429.09 64.5895V55.2173H1426.51V65.2303C1426.51 68.9818 1428.77 71.2381 1432.32 71.2381C1433.36 71.2779 1434.4 71.061 1435.34 70.6068C1436.29 70.1526 1437.1 69.4752 1437.71 68.6347V70.9978H1440.28V55.2173H1437.7V63.8886ZM1446.93 70.9911V55.2173H1444.37V70.9911H1446.93ZM1459.89 55.2173H1455.25V51.0386H1452.68V54.1559C1452.68 54.9103 1452.38 55.2173 1451.58 55.2173H1449.87V57.4268H1452.68V66.8391C1452.68 69.5693 1454.12 70.9911 1456.87 70.9911H1459.89V68.7215H1457.54C1455.86 68.7215 1455.25 68.114 1455.25 66.4519V57.4268H1459.89V55.2173ZM1476.93 62.6336C1476.93 57.9609 1473.75 54.977 1469.44 54.977C1464.88 54.977 1461.35 58.3147 1461.35 63.2411C1461.35 67.9939 1464.65 71.2514 1469.39 71.2514C1472.94 71.2514 1475.85 69.4357 1476.73 66.4385H1474.22C1473.76 67.2683 1473.08 67.9528 1472.24 68.4134C1471.41 68.8739 1470.46 69.0918 1469.5 69.0419C1466.6 69.0419 1464.18 67.1928 1464 63.7017H1476.91C1476.94 63.3468 1476.96 62.9902 1476.95 62.6336H1476.93ZM1469.47 57.1532C1472.07 57.1532 1473.97 58.6351 1474.33 61.6056H1464.11C1464.29 60.3369 1464.94 59.1804 1465.94 58.3585C1466.93 57.5365 1468.2 57.1072 1469.49 57.1532H1469.47Z" fill="white"/>
</g>
<path d="M1805.63 68.8532V77.1525H1803.64V69.0546C1803.64 66.4803 1802.53 65.2268 1800.26 65.2268C1797.66 65.2268 1795.99 66.9169 1795.99 69.5359V77.1525H1794V48.0293H1795.99V65.2324C1797.08 63.9956 1798.55 63.352 1800.29 63.352C1803.58 63.352 1805.62 65.4618 1805.62 68.8588L1805.63 68.8532ZM1821.08 70.4089C1821.08 74.3711 1818.03 77.4712 1814.15 77.4712C1810.27 77.4712 1807.23 74.3711 1807.23 70.4089C1807.23 66.4467 1810.27 63.352 1814.15 63.352C1818.03 63.352 1821.08 66.4523 1821.08 70.4089ZM1819.04 70.4089C1819.04 67.4261 1816.94 65.182 1814.15 65.182C1811.35 65.182 1809.25 67.4317 1809.25 70.4089C1809.25 73.3862 1811.35 75.6359 1814.15 75.6359C1816.94 75.6359 1819.04 73.3862 1819.04 70.4089ZM1822.99 77.1525H1824.98V37.111H1822.99V77.1525ZM1841.98 63.352C1840.09 63.352 1838.63 64.0795 1837.62 65.5178C1836.73 64.1522 1835.24 63.352 1833.5 63.352C1832.08 63.352 1830.81 63.8724 1829.95 64.7567V63.6654H1827.96V77.1469H1829.95V69.049C1829.95 66.6146 1831.24 65.2211 1833.5 65.2211C1835.9 65.2211 1836.41 67.0455 1836.41 68.5734V77.1469H1838.4V68.9315C1838.4 66.5755 1839.7 65.2211 1841.98 65.2211C1843.83 65.2211 1844.85 66.3964 1844.85 68.5341V77.1469H1846.84V68.3327C1846.84 64.8853 1844.4 63.3464 1841.98 63.3464V63.352ZM1861.86 71.0469H1850.49C1850.76 73.8115 1852.72 75.6359 1855.48 75.6359C1857.38 75.6359 1858.64 75.0706 1859.71 73.7499L1859.97 73.4197L1861.35 74.6733L1861.12 74.9643C1859.82 76.6264 1857.92 77.4712 1855.48 77.4712C1851.46 77.4712 1848.43 74.4326 1848.43 70.4089C1848.43 66.3852 1851.4 63.3464 1855.2 63.3464C1859 63.3464 1861.76 66.2788 1861.85 70.6383L1861.86 71.0413V71.0469ZM1859.76 69.2113C1859.47 67.5324 1858.47 65.182 1855.2 65.182C1852.84 65.182 1851.02 66.7825 1850.57 69.2113H1859.76ZM1867.87 69.0322C1865.99 68.4055 1865.16 68.0753 1865.16 66.8553C1865.16 65.82 1866 65.1764 1867.35 65.1764C1868.57 65.1764 1869.39 65.6465 1869.99 66.6986L1870.18 67.0288L1871.86 66.1445L1871.68 65.792C1870.82 64.1691 1869.36 63.3464 1867.35 63.3464C1864.91 63.3464 1863.2 64.7902 1863.2 66.8553C1863.2 69.3232 1865 70.1235 1867.34 70.907C1869.69 71.6737 1870.73 72.2389 1870.73 73.5596C1870.73 75.093 1869.29 75.6359 1867.94 75.6359C1866.12 75.6359 1864.76 74.8132 1864.13 73.3246L1863.97 72.9552L1862.2 73.7107L1862.37 74.0801C1863.36 76.2962 1865.29 77.4656 1867.95 77.4656C1870.85 77.4656 1872.73 75.9157 1872.73 73.5149C1872.73 70.6216 1870.15 69.7765 1867.87 69.0267V69.0322ZM1885.23 63.6654H1887.22V79.2568C1887.22 83.3528 1884.69 86 1880.77 86C1877.69 86 1875.23 84.495 1874.19 81.9651L1874.03 81.5848L1875.85 80.9077L1876 81.2655C1876.71 83.0062 1878.53 84.0916 1880.77 84.0916C1883.56 84.0916 1885.23 82.2562 1885.23 79.1839V75.3056C1884.06 76.7159 1882.41 77.4769 1880.45 77.4769C1876.52 77.4769 1873.56 74.4382 1873.56 70.4145C1873.56 66.3908 1876.52 63.352 1880.45 63.352C1882.41 63.352 1884.06 64.1131 1885.23 65.5178V63.671V63.6654ZM1885.31 70.4089C1885.31 67.3533 1883.31 65.2211 1880.45 65.2211C1877.59 65.2211 1875.59 67.3533 1875.59 70.4089C1875.59 73.4645 1877.59 75.5967 1880.45 75.5967C1883.31 75.5967 1885.31 73.4645 1885.31 70.4089ZM1890.21 77.1525H1892.2V15H1890.21V77.1525ZM1907.54 71.0469H1896.17C1896.44 73.8115 1898.4 75.6359 1901.15 75.6359C1903.05 75.6359 1904.32 75.0706 1905.39 73.7499L1905.65 73.4197L1907.03 74.6733L1906.8 74.9643C1905.5 76.6264 1903.6 77.4712 1901.15 77.4712C1897.14 77.4712 1894.11 74.4326 1894.11 70.4089C1894.11 66.3852 1897.08 63.3464 1900.88 63.3464C1904.67 63.3464 1907.44 66.2788 1907.53 70.6383V71.0413L1907.54 71.0469ZM1905.44 69.2113C1905.15 67.5324 1904.15 65.182 1900.89 65.182C1898.52 65.182 1896.7 66.7825 1896.25 69.2113H1905.44ZM1915.66 63.3464C1913.94 63.3464 1912.39 64.0236 1911.36 65.1764V63.6654H1909.37V77.1469H1911.36V69.5303C1911.36 66.9112 1913.03 65.2211 1915.62 65.2211C1917.9 65.2211 1919.01 66.4747 1919.01 69.049V77.1469H1921V68.8475C1921 65.4506 1918.96 63.3408 1915.67 63.3408L1915.66 63.3464Z" fill="white"/>
<defs>
<clipPath id="clip0_222_109">
<rect width="166" height="34" fill="white" transform="translate(1981.73 50)"/>
</clipPath>
<clipPath id="clip1_222_109">
<rect width="204" height="51" fill="white" transform="translate(1533 33)"/>
</clipPath>
<clipPath id="clip2_222_109">
<rect width="202" height="36" fill="white" transform="translate(1275 47)"/>
</clipPath>
</defs>
</svg>
