<?xml version="1.0" encoding="UTF-8"?>
<svg width="102px" height="51px" viewBox="0 0 102 51" version="1.1" xmlns="http://www.w3.org/2000/svg" xmlns:xlink="http://www.w3.org/1999/xlink">
    <title>Group 9</title>
    <g id="hi-fidelity" stroke="none" stroke-width="1" fill="none" fill-rule="evenodd">
        <g id="Desktop-HD-Copy-8" transform="translate(-455.000000, -17.000000)">
            <g id="Group-3" transform="translate(438.000000, 0.000000)">
                <g id="Group-9" transform="translate(17.000000, 17.000000)">
                    <path d="M51,12.75 L51,12.75 C51,5.708175 45.291825,0 38.25,0 L0,0 L0,25.5 L0,51 L51,51 L25.5,25.5 L38.25,25.5 C45.291825,25.5 51,19.791825 51,12.75" id="Fill-1" fill="#6F51FF"></path>
                    <polygon id="Fill-3" fill="#6F51FF" points="102 0 51 0 51 25.5 51 51 102 51 76.5 25.5"></polygon>
                    <polygon id="Fill-5" fill="#0040D0" points="51 0 51 25.5 51 51 102 51 76.5 25.5"></polygon>
                    <polygon id="Fill-7" fill="#0040D0" points="0 0 0 25.5 0 51 51 51 25.5 25.5"></polygon>
                </g>
            </g>
        </g>
    </g>
</svg>