<?xml version="1.0" encoding="utf-8"?>
<!-- Generator: Adobe Illustrator 24.1.0, SVG Export Plug-In . SVG Version: 6.00 Build 0)  -->
<svg version="1.1" id="Layer_1" xmlns="http://www.w3.org/2000/svg" xmlns:xlink="http://www.w3.org/1999/xlink" x="0px" y="0px"
	 viewBox="0 0 150 150" style="enable-background:new 0 0 150 150;" xml:space="preserve">
<style type="text/css">
	.st0{fill:#3206FF;}
	.st1{fill:#EBE6FF;}
	.st2{fill:#1E0499;}
</style>
<g>
	<path class="st0" d="M63,68.5H10c-2.76,0-5-2.24-5-5v-53c0-2.76,2.24-5,5-5h53c2.76,0,5,2.24,5,5v53C68,66.26,65.76,68.5,63,68.5z"
		/>
	<circle class="st1" cx="36.5" cy="37" r="16.25"/>
	<path class="st1" d="M140,5.5H87c-2.76,0-5,2.24-5,5v53c0,2.76,2.24,5,5,5h53c2.76,0,5-2.24,5-5v-53C145,7.74,142.76,5.5,140,5.5z
		 M63,81.5H10c-2.76,0-5,2.24-5,5v53c0,2.76,2.24,5,5,5h53c2.76,0,5-2.24,5-5v-53C68,83.74,65.76,81.5,63,81.5z M140,81.5H87
		c-2.76,0-5,2.24-5,5v53c0,2.76,2.24,5,5,5h53c2.76,0,5-2.24,5-5v-53C145,83.74,142.76,81.5,140,81.5z"/>
	<path class="st2" d="M115.25,103.16V46.84c4.69-0.83,8.25-4.91,8.25-9.84c0-5.52-4.48-10-10-10c-5.52,0-10,4.48-10,10
		c0,2.2,0.72,4.22,1.92,5.87l-62.94,62.13c-1.22-0.91-2.66-1.55-4.22-1.83V46.84c4.69-0.83,8.25-4.91,8.25-9.84
		c0-5.52-4.48-10-10-10c-5.52,0-10,4.48-10,10c0,5.1,3.82,9.3,8.75,9.91v56.17c-4.93,0.62-8.75,4.82-8.75,9.91c0,5.52,4.48,10,10,10
		c5.52,0,10-4.48,10-10c0-2.2-0.72-4.22-1.92-5.87L107.52,45c1.35,1.01,2.97,1.69,4.73,1.91v56.17c-4.93,0.62-8.75,4.82-8.75,9.91
		c0,5.52,4.48,10,10,10c5.52,0,10-4.48,10-10C123.5,108.08,119.94,103.99,115.25,103.16z"/>
</g>
</svg>
