<?xml version="1.0" encoding="utf-8"?>
<!-- Generator: Adobe Illustrator 24.1.0, SVG Export Plug-In . SVG Version: 6.00 Build 0)  -->
<svg version="1.1" id="Layer_1" xmlns="http://www.w3.org/2000/svg" xmlns:xlink="http://www.w3.org/1999/xlink" x="0px" y="0px"
	 viewBox="0 0 150 150" style="enable-background:new 0 0 150 150;" xml:space="preserve">
<style type="text/css">
	.st0{fill:#EBE6FF;}
	.st1{fill:#1E0499;}
	.st2{fill:#3206FF;}
	.st3{fill:#6F51FF;}
</style>
<path class="st0" d="M12,145h126c4.42,0,8-3.58,8-8V13c0-4.42-3.58-8-8-8H12c-4.42,0-8,3.58-8,8v124C4,141.42,7.58,145,12,145z"/>
<path class="st1" d="M71.18,24c1.66,0,3.12,1.12,3.55,2.72L80.04,39H146v98c0,4.42-3.58,8-8,8H12c-4.42,0-8-3.58-8-8V24H71.18z"/>
<circle class="st2" cx="132.5" cy="22.5" r="3.5"/>
<circle class="st2" cx="120.5" cy="22.5" r="3.5"/>
<circle class="st2" cx="108.5" cy="22.5" r="3.5"/>
<path class="st3" d="M83,74H23c-3.31,0-6-2.69-6-6v0c0-3.31,2.69-6,6-6h60c3.31,0,6,2.69,6,6v0C89,71.31,86.31,74,83,74z"/>
<path class="st3" d="M39,115H23c-3.31,0-6-2.69-6-6v0c0-3.31,2.69-6,6-6h16c3.31,0,6,2.69,6,6v0C45,112.31,42.31,115,39,115z"/>
<path class="st3" d="M97,115H57c-3.31,0-6-2.69-6-6v0c0-3.31,2.69-6,6-6h40c3.31,0,6,2.69,6,6v0C103,112.31,100.31,115,97,115z"/>
<path class="st3" d="M125,74h-24c-3.31,0-6-2.69-6-6v0c0-3.31,2.69-6,6-6h24c3.31,0,6,2.69,6,6v0C131,71.31,128.31,74,125,74z"/>
<path class="st3" d="M107,94H23c-3.31,0-6-2.69-6-6v0c0-3.31,2.69-6,6-6h84c3.31,0,6,2.69,6,6v0C113,91.31,110.31,94,107,94z"/>
</svg>
