<?xml version="1.0" encoding="utf-8"?>
<!-- Generator: Adobe Illustrator 24.1.0, SVG Export Plug-In . SVG Version: 6.00 Build 0)  -->
<svg version="1.1" id="Layer_1" xmlns="http://www.w3.org/2000/svg" xmlns:xlink="http://www.w3.org/1999/xlink" x="0px" y="0px"
	 viewBox="0 0 150 150" style="enable-background:new 0 0 150 150;" xml:space="preserve">
<style type="text/css">
	.st0{fill:#00226E;}
	.st1{fill:#B4C4EF;}
	.st2{fill:#4471DA;}
	.st3{fill:#0047D1;}
	.st4{fill:#FFFFFF;}
</style>
<g>
	<path class="st0" d="M12,142.91h126c4.42,0,8-3.58,8-8v-120c0-4.42-3.58-8-8-8H12c-4.42,0-8,3.58-8,8v120
		C4,139.33,7.58,142.91,12,142.91z"/>
	<rect x="42" y="33.91" class="st1" width="65" height="82"/>
	<rect x="4" y="40.91" class="st2" width="27" height="68"/>
	<rect x="119" y="40.91" class="st2" width="27" height="68"/>
	<path class="st3" d="M97.81,108.91H52.19c-1.21,0-2.19-0.98-2.19-2.19V93.1c0-1.21,0.98-2.19,2.19-2.19h45.61
		c1.21,0,2.19,0.98,2.19,2.19v13.61C100,107.93,99.02,108.91,97.81,108.91z"/>
	<path class="st3" d="M23.81,103.91H4v-18h19.81c1.21,0,2.19,0.98,2.19,2.19v13.61C26,102.93,25.02,103.91,23.81,103.91z"/>
	<path class="st3" d="M126.19,103.91H146v-18h-19.81c-1.21,0-2.19,0.98-2.19,2.19v13.61C124,102.93,124.98,103.91,126.19,103.91z"/>
	<g>
		<path class="st4" d="M105.35,123.7l-10.17,12.06c-1.12,1.33-3.3,0.66-3.46-1.08l-3.16-32.74c-0.15-1.55,1.48-2.66,2.87-1.94
			l29.21,15.13c1.55,0.8,1.37,3.07-0.29,3.62L105.35,123.7z"/>
		<path class="st4" d="M119.28,140.32l-3.7,2.5c-0.73,0.49-1.72,0.3-2.21-0.43l-13.02-19.26c-0.49-0.73-0.3-1.72,0.43-2.21l3.7-2.5
			c0.73-0.49,1.72-0.3,2.21,0.43l13.02,19.26C120.2,138.83,120.01,139.82,119.28,140.32z"/>
	</g>
</g>
</svg>
