<?xml version="1.0" encoding="utf-8"?>
<!-- Generator: Adobe Illustrator 24.1.0, SVG Export Plug-In . SVG Version: 6.00 Build 0)  -->
<svg version="1.1" id="Layer_1" xmlns="http://www.w3.org/2000/svg" xmlns:xlink="http://www.w3.org/1999/xlink" x="0px" y="0px"
	 viewBox="0 0 150 150" style="enable-background:new 0 0 150 150;" xml:space="preserve">
<style type="text/css">
	.st0{fill:#B4C4EF;}
	.st1{fill:#00226E;}
	.st2{fill:#FFFFFF;}
	.st3{fill:#0047D1;}
	.st4{fill:none;stroke:#B4C4EF;stroke-width:3;stroke-miterlimit:10;}
	.st5{fill:#4471DA;}
	.st6{fill:none;stroke:#00226E;stroke-width:6;stroke-miterlimit:10;}
	.st7{fill:none;stroke:#0047D1;stroke-width:6;stroke-miterlimit:10;}
</style>
<path class="st0" d="M136.38,144.37H12.91c-3.53,0-6.39-2.86-6.39-6.39V12.39C6.52,8.86,9.38,6,12.91,6h123.47
	c3.53,0,6.39,2.86,6.39,6.39v125.6C142.77,141.52,139.91,144.37,136.38,144.37z"/>
<path class="st1" d="M142.77,65.26c-14.37-23.11-38.91-38.5-68.12-38.5S20.89,42.15,6.52,65.26v72.73c0,3.53,2.86,6.39,6.39,6.39
	h123.47c3.53,0,6.39-2.86,6.39-6.39V65.26z"/>
<circle class="st2" cx="138.64" cy="29.19" r="8"/>
<path class="st3" d="M138.64,37.19c-6.07,0-11-4.93-11-11s4.93-11,11-11s11,4.93,11,11S144.71,37.19,138.64,37.19z M138.64,21.19
	c-2.76,0-5,2.24-5,5s2.24,5,5,5s5-2.24,5-5S141.4,21.19,138.64,21.19z"/>
<g>
	<circle class="st2" cx="10.64" cy="26.19" r="8"/>
	<path class="st3" d="M10.64,37.19c-6.07,0-11-4.93-11-11s4.93-11,11-11s11,4.93,11,11S16.71,37.19,10.64,37.19z M10.64,21.19
		c-2.76,0-5,2.24-5,5s2.24,5,5,5s5-2.24,5-5S13.4,21.19,10.64,21.19z"/>
</g>
<line class="st4" x1="75.64" y1="38.19" x2="75.64" y2="89.19"/>
<path class="st5" d="M96.05,144.37l9.81-14.92c7.74-11.78,8.19-26.91,1.14-39.12L75.64,35.97L44.28,90.33
	c-7.04,12.21-6.6,27.35,1.14,39.12l9.81,14.92H96.05z"/>
<circle class="st1" cx="75.64" cy="108.69" r="8"/>
<line class="st6" x1="75.64" y1="29.19" x2="75.64" y2="106.19"/>
<rect x="65.64" y="17.19" class="st3" width="20" height="19"/>
<line class="st7" x1="18.64" y1="26.19" x2="130.64" y2="26.19"/>
</svg>
